<?xml version="1.0" standalone="no"?>
<!DOCTYPE svg PUBLIC "-//W3C//DTD SVG 20010904//EN" "http://www.w3.org/TR/2001/REC-SVG-20010904/DTD/svg10.dtd">
<svg version="1.0" xmlns="http://www.w3.org/2000/svg" width="2000.000000pt" height="1448.000000pt"
    viewBox="0 0 2000.000000 1448.000000" preserveAspectRatio="xMidYMid meet">
    <metadata>
        Created by potrace 1.16, written by Peter Selinger 2001-2019
    </metadata>
    <g transform="translate(0.000000,1448.000000) scale(0.100000,-0.100000)" fill="#000000" stroke="none">
        <path d="M9465 12484 c-884 -71 -1664 -323 -2375 -766 -119 -74 -141 -93 -134
-113 10 -25 30 -18 127 43 309 196 639 359 974 481 398 145 820 242 1258 287
211 22 730 26 940 6 1096 -102 2086 -517 2905 -1218 130 -111 389 -366 502
-494 391 -443 716 -977 935 -1535 204 -519 314 -1026 356 -1635 11 -164 13
-175 32 -175 19 0 20 6 19 137 -3 274 -61 687 -145 1023 -232 928 -697 1750
-1374 2431 -198 200 -279 272 -465 420 -701 557 -1557 930 -2430 1059 -270 40
-368 47 -720 50 -195 1 -377 1 -405 -1z" />
        <path d="M8907 11903 c-21 -20 7 -52 156 -177 105 -89 169 -136 181 -134 22 3
29 18 18 34 -11 17 -332 284 -341 284 -4 0 -11 -3 -14 -7z" />
        <path d="M9363 11523 c-24 -9 -13 -41 23 -68 53 -40 88 -123 81 -186 -9 -72
-15 -76 -53 -32 -24 27 -34 48 -34 71 -1 137 -203 170 -254 41 -34 -83 25
-179 109 -179 16 0 41 -14 68 -39 l41 -39 -39 -11 c-48 -13 -117 1 -160 31
-16 12 -99 80 -182 150 -84 70 -157 128 -162 128 -5 0 -15 -7 -22 -16 -15 -19
-31 -3 189 -189 190 -160 262 -189 372 -150 l42 15 47 -39 c186 -155 243 -105
99 87 l-40 53 16 40 c18 46 20 140 3 186 -28 75 -110 158 -144 146z" />
        <path d="M5955 11249 c-229 -24 -452 -133 -620 -303 -133 -134 -220 -286 -273
-476 -25 -87 -27 -110 -26 -270 0 -146 4 -188 22 -252 53 -193 142 -349 276
-484 144 -145 291 -230 484 -281 84 -23 117 -26 252 -26 135 0 168 3 252 26
373 99 655 381 756 756 22 84 25 117 26 261 1 143 -2 177 -23 254 -69 265
-224 484 -443 629 -145 96 -293 148 -468 167 -105 11 -103 11 -215 -1z m355
-77 c163 -44 157 -47 -95 -52 -175 -4 -230 -8 -229 -17 1 -7 2 -17 3 -23 0 -6
104 -10 287 -10 l286 0 71 -50 c40 -27 90 -67 112 -90 l39 -40 -168 0 -167 0
3 -22 c3 -23 5 -23 187 -26 127 -2 189 -6 199 -15 9 -6 30 -35 49 -64 32 -51
42 -83 25 -83 -13 0 -32 -47 -32 -78 0 -44 34 -89 76 -101 20 -6 41 -8 46 -5
4 3 13 -7 19 -23 12 -33 38 -195 32 -205 -2 -5 -118 -8 -256 -8 l-252 0 -28
53 c-15 28 -56 86 -92 127 -51 59 -64 82 -65 108 0 73 -55 121 -123 108 -64
-12 -102 -85 -78 -148 13 -34 66 -68 106 -68 25 0 44 -14 100 -71 39 -39 84
-78 100 -87 l30 -17 -50 -5 c-42 -4 -50 -8 -50 -25 0 -20 8 -20 333 -23 l332
-2 0 -22 c0 -40 -22 -195 -30 -207 -5 -9 -118 -14 -406 -19 -390 -7 -399 -7
-399 -27 0 -20 8 -20 393 -23 267 -1 392 -6 392 -13 0 -29 -70 -173 -121 -248
-100 -150 -237 -270 -394 -347 -156 -76 -322 -106 -511 -93 -122 9 -228 39
-354 102 l-105 52 145 6 c80 4 267 7 416 8 149 0 306 4 348 8 71 5 77 8 74 27
-3 20 -8 21 -183 21 -99 0 -337 -2 -528 -4 l-348 -5 -70 70 -70 69 121 3 c66
1 128 -1 138 -6 9 -5 46 -7 82 -4 36 3 160 8 275 11 208 6 210 6 213 29 l3 22
-213 1 c-117 0 -221 3 -230 7 -10 4 -42 38 -73 76 -30 38 -70 85 -89 106 -23
25 -36 51 -41 81 -4 24 -14 56 -22 70 -50 86 -200 76 -239 -16 -40 -96 10
-182 115 -198 23 -4 51 -22 87 -58 29 -29 51 -56 48 -61 -3 -4 -52 -8 -109 -8
-101 0 -104 1 -125 28 -68 86 -148 309 -164 460 l-7 62 133 0 c73 0 139 4 146
9 8 5 12 17 10 27 -3 17 -15 19 -146 22 l-143 3 6 57 c3 31 13 90 21 130 l15
72 149 0 c129 0 149 2 154 17 4 9 2 21 -3 26 -5 5 -70 8 -145 8 -75 -1 -136 0
-136 3 0 2 13 34 30 70 130 292 398 505 716 571 98 20 325 13 424 -13z" />
        <path d="M5565 10907 c-17 -14 -28 -36 -32 -62 -4 -35 -1 -45 25 -73 23 -25
38 -32 67 -32 33 0 47 -10 122 -80 85 -80 113 -96 113 -61 0 19 -81 131 -119
165 -15 14 -21 31 -21 63 0 87 -92 135 -155 80z" />
        <path d="M5763 10875 c-3 -9 -1 -21 4 -26 5 -5 105 -8 244 -7 226 3 234 4 234
23 0 19 -8 20 -238 23 -209 2 -238 0 -244 -13z" />
        <path d="M6414 10575 c-14 -36 8 -40 225 -37 l211 3 0 24 0 25 -215 0 c-183 0
-216 -2 -221 -15z" />
        <path d="M5537 10543 c-12 -3 -17 -12 -15 -26 l3 -22 289 2 c164 2 294 7 299
12 5 5 7 17 4 25 -6 14 -40 16 -284 15 -153 -1 -286 -3 -296 -6z" />
        <path d="M5495 10231 c-51 -5 -60 -9 -60 -26 0 -19 6 -20 208 -19 211 0 237 5
224 38 -5 14 -29 16 -159 14 -84 -1 -180 -4 -213 -7z" />
        <path d="M11519 10572 c-158 -100 -194 -308 -84 -472 27 -40 33 -56 24 -66 -9
-11 -20 -9 -59 11 -156 79 -193 314 -75 470 45 58 12 91 -36 38 -93 -102 -115
-265 -54 -400 30 -68 105 -147 155 -165 29 -9 30 -13 30 -68 l0 -59 -47 -7
c-89 -13 -187 30 -236 104 -34 53 -47 97 -47 164 0 56 -1 59 -22 56 -21 -3
-23 -9 -26 -66 -4 -95 19 -155 87 -223 38 -38 72 -61 105 -72 54 -19 151 -22
189 -8 20 8 29 6 41 -8 15 -17 14 -20 -18 -53 -52 -54 -100 -73 -181 -73 -52
1 -81 6 -111 22 -43 23 -98 79 -116 119 -6 13 -20 24 -30 24 -73 0 19 -138
127 -191 60 -29 70 -31 148 -27 98 5 152 31 211 100 20 23 39 38 43 34 12 -12
-16 -118 -42 -158 -65 -98 -212 -134 -317 -78 -31 16 -38 17 -54 5 -18 -13
-18 -14 1 -33 53 -50 178 -67 271 -35 97 33 194 160 194 255 0 15 4 28 8 28 4
0 27 -20 51 -44 l43 -44 -12 -51 c-24 -101 -108 -174 -217 -189 -39 -6 -48
-11 -48 -27 0 -28 60 -32 128 -9 67 22 160 112 178 172 7 23 18 47 26 53 7 6
13 26 13 44 0 18 8 42 18 54 16 21 18 21 41 5 35 -25 50 -69 38 -113 -5 -20
-9 -51 -9 -70 1 -28 -8 -42 -50 -83 -51 -49 -58 -78 -19 -78 33 0 135 109 155
167 9 24 19 37 30 37 25 -3 20 18 -30 124 -58 120 -82 152 -146 193 -42 27
-47 34 -33 42 10 5 39 7 66 4 87 -11 160 -62 202 -142 21 -39 25 -104 15 -210
-2 -22 2 -30 15 -33 26 -5 47 55 47 135 0 168 -119 291 -292 301 -43 2 -78 8
-78 13 0 16 77 70 115 80 60 17 145 6 199 -26 56 -33 79 -61 102 -123 23 -63
38 -79 58 -62 30 24 -18 134 -84 194 -61 55 -122 79 -200 79 -79 1 -127 -14
-184 -58 -50 -38 -70 -34 -57 11 20 71 73 135 137 168 80 40 184 28 261 -31
42 -32 47 -34 62 -18 15 15 13 19 -27 55 -104 93 -275 94 -382 3 -48 -41 -81
-90 -100 -147 -12 -37 -14 -38 -26 -21 -9 11 -14 45 -14 84 0 151 98 252 247
255 72 1 93 14 67 41 -15 14 -30 17 -84 13 -121 -9 -208 -68 -259 -177 -22
-48 -26 -69 -25 -143 0 -49 -3 -88 -7 -88 -14 0 -62 65 -82 110 -25 56 -26
158 -2 215 21 50 78 110 128 136 24 13 37 26 37 39 0 29 -37 26 -91 -8z m132
-573 c35 -37 38 -55 6 -34 -23 15 -26 13 -80 -44 -31 -32 -59 -56 -62 -53 -3
4 -3 -1 0 -10 4 -9 19 -21 33 -27 15 -5 22 -10 15 -10 -70 -5 -116 91 -76 159
20 35 47 48 96 49 31 1 45 -5 68 -30z" />
        <path d="M8797 10183 c-4 -3 -7 -17 -7 -30 0 -16 -6 -23 -19 -23 -10 0 -24 -7
-31 -15 -15 -18 -1 -40 31 -50 12 -4 19 -16 19 -31 0 -32 25 -41 50 -19 13 12
27 15 49 10 36 -8 52 15 32 46 -8 15 -8 23 0 38 19 29 5 52 -28 45 -21 -4 -33
0 -47 15 -19 21 -37 26 -49 14z" />
        <path d="M3404 9665 c-52 -107 -94 -201 -94 -209 0 -15 26 -31 230 -140 69
-36 139 -78 155 -92 17 -14 36 -29 43 -33 11 -6 6 -23 -22 -79 -20 -40 -39
-72 -43 -72 -4 0 -38 18 -75 41 -38 22 -72 37 -78 34 -12 -8 -140 -220 -140
-233 0 -6 41 -34 90 -62 l90 -52 -37 -69 c-27 -49 -42 -67 -53 -64 -8 3 -116
62 -241 130 -124 69 -233 125 -242 125 -11 0 -45 -59 -112 -197 -52 -108 -95
-201 -95 -208 0 -6 79 -56 176 -111 97 -54 195 -115 218 -135 68 -59 129 -97
162 -102 30 -5 115 -43 124 -57 3 -4 32 -21 65 -38 70 -37 95 -55 95 -70 0
-13 52 -42 75 -42 9 0 13 5 10 10 -16 26 58 -21 130 -83 115 -99 222 -169 254
-165 51 6 25 88 -78 247 -39 60 -40 65 -25 83 16 17 15 22 -16 85 -18 38 -38
71 -43 74 -6 4 3 34 22 74 17 37 31 73 31 80 0 8 -100 69 -222 136 -123 67
-224 123 -226 125 -2 1 63 128 74 142 1 2 34 -15 74 -38 39 -23 78 -40 87 -38
16 3 143 199 143 221 0 7 -40 37 -90 66 -49 29 -90 58 -90 63 0 6 14 36 31 68
27 52 34 58 58 55 34 -5 151 -53 171 -70 8 -7 42 -28 75 -45 33 -18 76 -47 95
-65 44 -41 71 -55 108 -55 21 0 47 -16 98 -61 38 -34 109 -88 157 -120 85 -57
128 -71 142 -48 15 24 -23 110 -97 221 -65 97 -78 123 -78 157 0 22 -7 56 -17
75 -16 35 -16 37 15 107 18 39 32 77 32 83 0 6 -55 41 -122 77 -561 302 -877
469 -888 469 -6 0 -54 -88 -106 -195z m193 93 c35 -18 63 -37 63 -42 0 -12
-60 -116 -67 -116 -13 0 -123 64 -123 71 0 12 53 119 59 119 3 0 33 -15 68
-32z m-87 -178 c33 -17 60 -34 60 -38 0 -4 -17 -37 -38 -74 l-38 -67 -62 35
-62 35 35 70 c20 38 38 69 40 69 3 0 32 -14 65 -30z m185 -620 c77 -46 142
-85 144 -87 5 -4 -9 -30 -59 -110 l-26 -43 -148 84 c-81 47 -150 87 -153 90
-3 3 12 33 33 68 45 77 54 89 63 84 3 -1 69 -40 146 -86z m-735 -355 l50 -25
-24 -48 c-46 -89 -46 -89 -99 -58 l-46 27 32 65 c17 35 33 64 34 64 2 0 26
-11 53 -25z m613 -331 c29 -15 54 -28 56 -30 8 -7 -22 -64 -34 -64 -7 0 -16
-7 -19 -16 -5 -13 -15 -15 -42 -11 -43 7 -64 23 -64 49 0 19 36 98 46 98 2 0
28 -12 57 -26z" />
        <path d="M12961 9744 c-134 -29 -294 -128 -378 -233 -89 -113 -132 -214 -153
-357 -12 -79 -13 -82 -48 -99 -61 -29 -127 -82 -147 -118 -40 -75 29 -134 170
-144 l75 -6 36 -66 c23 -40 69 -98 119 -147 94 -94 194 -149 335 -186 47 -12
88 -26 91 -30 3 -5 19 -12 36 -17 24 -7 54 -1 146 29 176 58 267 110 363 205
97 96 146 189 192 358 24 87 36 115 62 142 22 23 31 40 27 54 -3 14 6 28 35
52 49 39 72 87 58 123 -17 45 -62 62 -212 81 -45 6 -49 9 -93 75 -63 95 -151
172 -260 226 -144 71 -302 92 -454 58z m54 -56 c-16 -5 -37 -12 -45 -15 -8 -3
-19 -7 -25 -8 -5 0 -23 -6 -38 -13 -16 -7 -33 -12 -38 -12 -5 0 -9 -4 -9 -9 0
-5 -13 -14 -29 -21 -28 -11 -46 -34 -37 -48 2 -4 -8 -8 -22 -8 -15 -1 -21 1
-14 3 6 3 12 9 12 15 0 6 -9 3 -20 -7 -11 -10 -17 -22 -14 -26 3 -5 -2 -9 -10
-9 -9 0 -16 -7 -16 -16 0 -8 -5 -12 -11 -9 -9 6 -48 -35 -42 -42 2 -2 -9 -14
-23 -28 -15 -15 -23 -32 -20 -41 4 -10 2 -13 -6 -8 -8 5 -9 2 -5 -10 4 -10 3
-15 -3 -11 -6 3 -10 -1 -10 -9 0 -8 -6 -19 -14 -23 -8 -4 -16 -17 -18 -28 -2
-11 -10 -19 -17 -17 -7 1 -10 -2 -7 -7 7 -10 -11 -95 -25 -123 -12 -24 -11
-37 1 -18 16 25 12 -22 -4 -56 -12 -23 -13 -44 -6 -99 11 -86 11 -109 -1 -70
-5 17 -12 66 -15 110 -17 208 82 424 253 554 49 37 155 88 221 106 57 16 102
18 57 3z m-240 -159 c-4 -6 -1 -10 6 -8 43 5 46 1 38 -50 -13 -86 -85 -171
-145 -171 -18 0 -23 7 -26 38 -6 46 15 90 75 155 40 43 68 63 52 36z m-345
-546 c0 -16 7 -53 15 -83 8 -30 12 -56 10 -58 -6 -6 -136 18 -157 29 -39 21
-18 56 67 113 51 33 65 33 65 -1z m238 -288 c53 -53 134 -126 179 -163 45 -37
78 -68 72 -70 -13 -5 -111 41 -163 77 -83 57 -206 200 -206 238 0 27 25 10
118 -82z" />
        <path d="M9055 9479 c-242 -85 -367 -339 -288 -584 9 -27 26 -66 38 -85 12
-19 24 -40 28 -46 4 -7 -29 -24 -91 -47 -278 -102 -493 -177 -507 -177 -8 0
-115 45 -236 101 -122 55 -229 102 -239 104 -9 2 -58 26 -108 54 -76 42 -101
51 -142 51 -41 0 -55 -5 -84 -30 -42 -38 -60 -86 -51 -141 10 -56 46 -94 129
-136 44 -22 101 -64 151 -110 121 -114 139 -124 232 -128 52 -2 93 -10 123
-24 25 -11 53 -21 63 -21 10 0 45 -12 79 -26 59 -25 65 -25 180 -17 66 5 121
6 124 4 2 -2 4 -40 4 -83 0 -75 2 -81 29 -109 24 -24 38 -29 76 -29 39 0 46
-3 41 -17 -15 -53 -26 -194 -26 -342 l0 -167 -46 -44 c-174 -169 -267 -452
-234 -714 l11 -89 -47 -81 c-269 -467 -700 -969 -1038 -1210 -303 -215 -548
-255 -675 -111 -82 94 -118 228 -131 495 -18 347 -77 516 -235 676 -67 69 -95
89 -175 127 -114 54 -187 73 -342 89 -162 17 -270 5 -928 -96 -732 -113 -797
-119 -919 -96 -109 20 -151 59 -151 137 1 86 62 194 262 460 134 178 188 266
188 306 0 9 -10 27 -21 38 -18 18 -30 21 -80 17 -64 -5 -85 -17 -75 -43 5 -15
15 -16 61 -10 50 6 55 5 55 -12 0 -26 -43 -92 -165 -254 -185 -246 -243 -341
-270 -445 -21 -82 -11 -128 39 -179 61 -60 106 -70 311 -69 163 1 194 5 760
95 l590 93 215 0 c191 0 224 -3 295 -22 216 -60 354 -172 441 -357 58 -125 79
-235 94 -500 21 -363 106 -530 297 -580 76 -20 115 -19 207 5 416 106 1034
714 1431 1406 104 182 94 169 110 147 13 -16 14 -14 15 23 0 27 9 54 25 78 14
21 35 65 46 99 11 34 24 67 29 72 4 6 29 75 55 155 70 217 66 213 124 164 43
-36 38 -19 -11 40 l-43 51 40 -32 c83 -65 224 -239 281 -348 53 -100 53 -109
-9 -221 -30 -55 -89 -166 -132 -249 -43 -82 -79 -152 -81 -154 -2 -2 -29 19
-59 48 -31 28 -60 51 -65 51 -4 0 -14 -7 -21 -16 -12 -15 -1 -29 97 -123 122
-117 218 -186 401 -286 68 -37 121 -70 119 -74 -7 -13 -89 -156 -91 -158 -2
-3 -115 36 -195 67 -99 39 -294 138 -375 192 -100 65 -184 149 -213 211 -16
33 -28 47 -42 47 -53 0 -2 -107 95 -199 118 -112 333 -233 583 -327 91 -35
102 -41 96 -59 -3 -11 -8 -51 -11 -90 -4 -59 -1 -77 19 -115 27 -52 78 -90
122 -90 25 0 40 -11 79 -55 l48 -55 -38 -40 c-52 -52 -83 -117 -97 -202 -12
-69 -13 -71 -54 -92 -60 -31 -117 -89 -147 -150 -28 -58 -42 -162 -28 -215 8
-31 6 -36 -46 -90 l-55 -57 -38 57 c-78 117 -212 213 -353 255 -41 12 -93 18
-165 17 -122 0 -225 -28 -323 -87 l-58 -35 -63 45 c-322 225 -778 170 -1042
-126 -22 -25 -51 -61 -64 -80 -13 -19 -25 -37 -26 -39 -2 -1 -28 9 -59 24
-103 48 -221 65 -326 45 -76 -14 -109 -29 -109 -50 0 -26 24 -31 71 -15 68 24
210 19 293 -10 101 -35 104 -40 73 -116 -30 -74 -60 -215 -55 -256 2 -20 8
-28 23 -28 15 0 22 9 27 35 4 19 14 70 22 112 30 153 131 323 250 419 204 165
471 212 721 127 66 -23 144 -65 190 -102 l29 -24 -36 -40 c-43 -48 -61 -79
-53 -92 13 -21 35 -7 111 69 121 120 244 171 411 171 147 0 287 -58 389 -160
65 -66 134 -171 134 -206 0 -13 4 -25 9 -28 5 -3 11 -16 13 -28 4 -23 4 -23
-131 -23 -156 0 -222 -15 -339 -73 -232 -115 -391 -349 -418 -615 -7 -68 -7
-69 -33 -62 -14 4 -72 9 -127 12 -116 6 -179 -8 -279 -60 -70 -37 -185 -147
-185 -177 0 -43 28 -31 97 38 84 85 169 130 278 145 185 27 376 -59 475 -213
34 -53 63 -63 67 -25 6 47 -79 138 -230 247 -15 12 -16 21 -7 97 34 295 243
543 520 617 69 18 229 24 293 11 37 -8 37 -8 37 -56 0 -56 20 -82 46 -60 18
15 14 86 -13 206 -15 69 -15 72 5 105 25 40 72 86 104 102 26 13 36 45 18 56
-31 19 -30 154 1 213 39 72 106 127 183 148 l35 10 -6 63 c-6 68 13 128 63
193 45 59 59 60 115 13 33 -27 68 -46 106 -56 31 -8 62 -19 69 -25 13 -11 33
-9 49 5 14 12 17 53 5 61 -6 3 -10 17 -10 30 0 21 4 24 28 19 19 -4 32 -1 41
10 11 13 9 19 -14 38 -58 50 -123 117 -117 122 3 3 1 6 -5 6 -6 0 -13 10 -16
23 -6 21 -15 28 -85 61 -49 23 -42 56 16 75 43 13 43 13 27 38 -9 13 -26 36
-38 50 -12 14 -26 31 -32 37 -5 7 -23 26 -38 43 -19 21 -29 43 -31 71 -5 73
-42 109 -191 187 -183 96 -350 202 -392 247 l-22 23 129 245 c71 135 132 246
137 247 4 1 56 -80 115 -180 293 -496 555 -883 703 -1037 29 -30 79 -95 111
-145 32 -49 88 -120 125 -157 57 -58 72 -68 102 -68 30 0 45 -10 109 -73 127
-128 220 -184 204 -124 -3 12 -6 45 -6 74 0 28 -6 58 -12 65 -7 8 -23 33 -35
57 l-22 43 26 -7 c103 -25 224 -128 273 -230 49 -103 58 -243 22 -336 -12 -31
-1 -52 23 -47 22 4 44 63 52 142 l6 58 83 -4 c67 -4 94 -10 148 -37 93 -45
164 -118 210 -214 27 -56 43 -77 54 -75 29 6 25 38 -12 112 -32 66 -100 146
-161 190 -17 12 -17 16 -5 20 82 30 117 38 195 43 187 11 337 -47 471 -181
139 -140 189 -262 188 -458 0 -119 5 -137 37 -117 11 6 14 36 14 131 0 109 -3
133 -29 212 -72 219 -253 390 -472 446 -43 11 -80 23 -83 26 -11 10 53 117 97
160 88 88 226 134 345 114 54 -8 167 -52 167 -64 0 -3 -7 -21 -16 -40 -19 -39
-13 -66 13 -66 12 0 29 23 52 72 65 139 229 271 381 306 235 55 468 -31 611
-225 26 -34 47 -53 57 -51 31 6 23 35 -28 102 l-51 67 24 42 c89 152 292 246
465 216 102 -18 117 -17 117 6 0 41 -175 69 -286 46 -116 -24 -250 -110 -312
-198 -18 -25 -37 -52 -43 -61 -10 -13 -17 -11 -58 17 -242 167 -578 141 -788
-61 -35 -35 -74 -76 -85 -93 l-21 -30 -44 22 c-136 68 -286 69 -425 2 -73 -35
-173 -141 -208 -222 l-29 -67 -60 0 c-64 0 -166 -22 -231 -50 -39 -17 -44 -17
-115 2 -41 10 -97 18 -124 16 l-50 -2 -11 51 c-20 86 -64 163 -134 234 -74 73
-148 115 -238 132 l-58 11 -74 105 c-70 100 -141 249 -141 295 0 22 -74 173
-96 196 -12 12 -16 12 -30 -1 -14 -15 -11 -25 31 -109 46 -92 47 -94 32 -126
-17 -34 -81 -78 -138 -94 -31 -9 -36 -7 -84 43 -74 77 -217 271 -333 454 l-34
52 33 68 c43 91 47 177 9 218 -14 15 -39 34 -57 41 -38 16 -164 19 -180 3 -10
-10 -81 100 -212 328 -57 99 -55 135 5 72 35 -38 216 -174 334 -250 98 -64
152 -83 197 -70 26 8 35 6 49 -10 9 -10 22 -19 28 -19 6 0 33 -42 60 -93 121
-230 210 -349 301 -403 170 -99 329 27 471 374 46 114 53 146 30 155 -21 8
-28 -4 -84 -141 -114 -276 -233 -399 -350 -359 -21 8 -55 26 -76 42 -74 57
-182 225 -259 406 -41 96 -40 123 7 148 14 8 23 18 20 23 -3 4 -1 8 4 8 5 0
14 12 20 26 9 18 17 24 31 19 10 -3 33 -7 50 -10 l31 -3 -37 56 c-19 31 -58
87 -85 123 -27 37 -64 99 -83 138 -19 40 -48 92 -65 116 -33 49 -37 60 -16 52
12 -5 13 2 9 31 -4 20 -12 47 -19 61 -11 21 -10 30 11 65 28 49 34 91 40 306
10 310 15 413 19 417 5 5 271 -58 416 -98 58 -16 119 -29 136 -29 17 0 140
-27 274 -60 134 -33 252 -60 262 -60 10 0 41 -23 70 -51 207 -200 488 -378
620 -393 42 -5 50 -3 63 18 14 21 14 28 0 70 -32 93 -124 231 -258 385 -49 55
-66 83 -70 112 -7 51 -42 106 -80 125 -17 9 -121 31 -232 50 -167 27 -431 89
-837 195 -20 5 -55 24 -77 42 -22 17 -70 54 -106 81 -56 40 -66 52 -60 70 4
11 11 41 17 66 5 25 16 71 24 102 26 105 17 162 -32 203 l-24 21 35 64 c49 92
45 134 -15 165 -55 28 -97 2 -142 -88 l-23 -47 -37 25 c-33 22 -37 31 -48 95
-25 151 -122 280 -259 348 -68 34 -82 37 -175 40 -82 2 -112 -1 -161 -19z
m307 -67 c91 -43 151 -100 193 -185 19 -40 38 -94 42 -121 5 -44 4 -49 -11
-43 -10 4 -21 7 -25 7 -5 0 -16 21 -26 48 -41 107 -210 222 -399 272 -48 13
-83 27 -79 31 17 17 91 28 165 25 60 -3 92 -11 140 -34z m-267 -67 c231 -58
398 -183 393 -294 -1 -23 -4 -37 -8 -31 -4 6 -5 22 -2 36 4 25 -12 34 -22 12
-3 -7 -3 -2 0 11 5 17 3 21 -7 16 -9 -6 -11 -4 -6 8 7 18 -3 27 -49 43 -70 24
-161 -26 -305 -168 -80 -80 -122 -102 -182 -94 -35 4 -55 -13 -41 -35 3 -5 0
-9 -6 -9 -6 0 -21 21 -33 48 -18 39 -22 65 -22 157 0 100 2 115 28 167 36 74
112 158 142 158 12 0 66 -11 120 -25z m801 -550 c7 -27 -13 -122 -27 -130 -4
-3 -16 -33 -25 -65 -9 -33 -19 -60 -21 -60 -21 0 -243 170 -243 187 0 8 16 51
36 96 24 54 36 95 35 120 l-2 38 120 -81 c86 -57 122 -87 127 -105z m-881
-120 c31 -29 43 -46 34 -49 -8 -2 -81 -7 -164 -10 -82 -4 -153 -10 -157 -14
-5 -5 -20 -56 -36 -115 l-27 -107 -67 0 c-37 0 -78 -5 -91 -11 -24 -11 -47
-47 -47 -73 0 -10 -22 -16 -77 -20 -162 -14 -171 -12 -268 35 -86 42 -91 47
-153 133 -35 50 -82 108 -103 130 -36 38 -47 64 -33 78 3 3 92 -34 199 -83
107 -49 199 -89 205 -89 6 0 145 48 308 106 447 161 410 154 477 89z m663
-137 c6 -1 10 -3 8 -6 -3 -2 14 -14 37 -27 42 -22 241 -159 265 -182 18 -18 9
-16 -41 6 -95 42 -189 66 -212 54 -7 -5 -61 -55 -120 -112 -73 -70 -110 -100
-117 -93 -23 23 30 302 65 346 20 25 26 27 62 21 22 -3 46 -7 53 -7z m-832
-285 c72 -66 74 -69 74 -114 0 -83 12 -79 -205 -79 -167 0 -194 2 -199 16 -3
9 -6 60 -6 114 0 54 3 105 6 114 5 13 26 16 131 16 l124 0 75 -67z m1627 -84
c177 -44 323 -81 324 -82 1 -1 -5 -48 -14 -105 -11 -71 -20 -102 -29 -102 -24
0 -458 110 -494 125 -19 8 -80 26 -135 39 -195 50 -234 64 -222 83 3 5 33 18
66 28 41 12 73 30 98 55 21 20 48 38 61 39 12 0 167 -35 345 -80z m-1721 -385
c35 -31 72 -60 83 -65 12 -5 -21 -8 -87 -8 -62 -1 -109 3 -113 9 -4 6 -3 35 0
65 7 49 10 55 31 55 14 0 48 -22 86 -56z m160 -140 c46 -6 47 -6 33 -27 -16
-23 -20 -65 -7 -83 14 -22 50 -34 74 -25 17 6 42 2 93 -18 l70 -26 -245 -8
c-315 -9 -304 -11 -247 30 36 26 51 32 76 27 65 -13 109 59 64 108 -32 35
-113 13 -113 -32 0 -10 -18 -29 -40 -44 l-40 -26 0 71 0 71 118 -6 c64 -4 138
-9 164 -12z m429 -266 c55 -35 64 -46 19 -23 -21 11 -35 13 -47 5 -10 -5 -52
-23 -93 -39 -184 -72 -250 -114 -250 -160 0 -16 7 -34 15 -41 9 -7 13 -21 10
-31 -4 -11 -3 -19 2 -19 10 0 47 -89 40 -96 -3 -3 -16 14 -28 37 -12 24 -39
67 -61 96 -33 46 -37 56 -28 76 11 21 10 21 -4 3 -14 -18 -21 -15 -17 7 0 4
-5 6 -11 5 -8 -2 -12 6 -11 18 3 24 -32 60 -61 66 -11 1 -21 10 -23 18 -4 13
-3 13 7 0 10 -13 11 -13 7 0 -2 8 -12 14 -22 12 -10 -2 -14 1 -10 7 3 6 2 11
-3 11 -4 0 -27 15 -51 33 l-42 32 158 5 c87 3 225 7 307 8 l148 2 49 -32z
m-751 19 c0 -3 -16 -38 -65 -142 -75 -159 -137 -338 -160 -468 l-13 -72 -1
103 c-2 211 60 390 188 539 31 36 51 52 51 40z m903 -1009 c57 -17 72 -56 51
-129 -15 -51 -40 -98 -47 -88 -15 19 -137 217 -137 222 0 11 90 8 133 -5z
m-187 -499 c22 -20 22 -22 5 -40 -10 -11 -24 -39 -31 -62 -8 -23 -33 -81 -57
-129 -23 -48 -45 -103 -47 -123 -4 -30 -1 -37 22 -50 17 -9 21 -14 11 -15 -29
0 -68 40 -80 82 -15 56 -4 118 29 165 16 21 48 73 72 115 25 43 47 78 49 78 3
0 15 -10 27 -21z m867 -316 c3 -16 2 -30 -2 -33 -4 -3 -16 -29 -26 -57 -11
-29 -23 -53 -27 -53 -4 0 -6 -16 -3 -36 4 -36 40 -93 79 -127 21 -18 21 -18
-4 -6 -14 7 -41 30 -60 52 -36 42 -130 175 -130 186 0 3 19 14 43 24 24 9 59
31 78 47 42 36 45 36 52 3z" />
        <path d="M8963 9317 c-15 -16 -15 -20 -3 -28 12 -8 10 -9 -6 -5 -40 12 -107
-159 -105 -268 1 -62 8 -70 65 -78 24 -4 46 34 46 78 0 58 20 138 52 206 27
59 29 72 19 91 -15 27 -46 29 -68 4z" />
        <path d="M4928 9057 c-193 -520 -310 -1140 -312 -1647 -1 -189 0 -195 19 -195
19 0 20 9 27 170 17 410 61 734 149 1095 53 220 90 343 176 580 35 98 36 120
5 120 -15 0 -28 -25 -64 -123z" />
        <path d="M10543 8862 c-34 -11 -70 -47 -82 -84 -24 -73 37 -158 113 -158 26 0
45 -13 106 -76 83 -85 152 -134 187 -134 33 0 30 35 -8 96 -33 51 -134 173
-156 187 -7 4 -13 27 -13 51 0 51 -28 92 -76 112 -36 15 -38 15 -71 6z" />
        <path d="M11620 8143 c-41 -15 -55 -87 -22 -116 28 -25 87 -22 106 5 42 60
-16 135 -84 111z" />
        <path d="M5522 7931 c-8 -5 -12 -17 -10 -27 3 -17 15 -19 149 -22 125 -2 148
0 160 14 11 14 11 18 -6 30 -21 16 -270 20 -293 5z" />
        <path d="M12782 7793 c-4 -10 -7 -67 -7 -128 0 -108 1 -112 39 -190 36 -73 40
-88 42 -170 1 -53 9 -108 18 -135 23 -62 84 -161 152 -245 l56 -70 -6 -72 c-3
-39 -11 -91 -18 -116 l-12 -45 57 -64 56 -64 53 7 c95 13 94 14 149 -56 28
-36 62 -68 75 -71 20 -5 24 -12 24 -44 0 -39 46 -140 67 -147 7 -3 16 13 23
35 10 37 76 112 99 112 5 0 17 3 27 7 12 4 15 3 10 -5 -4 -7 -2 -10 7 -7 7 3
32 -8 55 -25 51 -36 62 -37 62 -5 0 15 -9 31 -25 41 -13 8 -34 36 -45 60 -12
24 -26 44 -31 44 -11 0 -54 65 -74 113 l-16 38 40 -21 c22 -11 49 -20 60 -20
11 0 32 -11 46 -25 14 -14 25 -22 25 -18 0 4 13 -8 29 -27 27 -31 31 -33 55
-22 20 9 26 19 26 45 0 18 6 40 13 49 23 28 72 53 104 53 17 0 29 3 27 7 -9
14 9 9 26 -7 22 -20 50 -9 50 19 0 12 -12 38 -26 57 -14 19 -32 50 -40 69 -42
94 -61 132 -112 219 l-55 94 18 55 17 55 -64 63 -63 63 -105 -9 c-57 -5 -107
-6 -110 -2 -143 176 -247 292 -279 310 -23 13 -69 27 -103 33 -56 9 -67 14
-97 50 -59 70 -137 107 -264 124 -40 5 -48 3 -55 -12z m187 -89 c30 -13 52
-26 50 -28 -2 -2 -29 -21 -59 -41 -30 -21 -67 -49 -82 -63 -15 -14 -30 -23
-33 -20 -9 9 -23 147 -18 169 5 19 11 20 47 15 23 -4 65 -18 95 -32z m146
-121 c19 -27 35 -50 35 -53 0 -3 -28 -24 -62 -47 -35 -23 -79 -57 -98 -77 -19
-19 -38 -36 -41 -36 -12 0 -69 96 -69 116 0 37 140 144 187 144 7 0 28 -21 48
-47z m158 -30 c28 -22 207 -244 207 -258 0 -1 -12 -6 -26 -9 -21 -6 -30 -2
-43 16 -92 130 -190 278 -183 278 5 0 25 -12 45 -27z m77 -288 c20 -27 41 -57
45 -65 12 -22 -78 79 -92 104 -8 13 -12 16 -13 7 0 -11 -6 -8 -23 7 -28 26
-37 28 -37 7 0 -9 -9 -35 -20 -57 -11 -23 -20 -50 -20 -59 0 -10 -4 -21 -10
-24 -13 -8 -13 -62 1 -70 5 -4 8 -12 6 -18 -3 -11 26 -82 48 -117 5 -8 10 -21
11 -28 3 -19 25 -42 40 -42 22 0 44 -30 44 -60 0 -31 1 -30 -100 -54 -15 -3
-41 -28 -64 -61 -22 -30 -41 -53 -43 -52 -2 2 4 64 12 138 8 74 15 143 15 154
1 18 2 18 21 -5 11 -14 29 -35 40 -47 11 -13 17 -28 13 -34 -4 -7 -3 -9 4 -5
6 3 15 -1 20 -10 6 -11 16 -15 27 -10 16 6 16 8 1 29 -9 12 -25 36 -36 52 -10
17 -23 35 -28 41 -5 5 -60 81 -121 167 -77 108 -110 163 -106 175 9 31 67 79
138 116 l68 36 61 -83 c34 -45 78 -104 98 -132z m380 -33 c0 -4 -17 -16 -37
-27 -60 -32 -101 -73 -108 -108 -9 -44 -26 -87 -35 -87 -16 0 -31 29 -25 52 5
18 -6 43 -44 101 l-51 77 150 0 c83 0 150 -3 150 -8z" />
        <path d="M10136 7485 c-7 -20 192 -237 214 -233 37 7 19 42 -75 143 -93 101
-126 122 -139 90z" />
        <path d="M14775 7126 c-11 -8 -16 -19 -12 -30 6 -14 38 -16 315 -16 272 0 311
2 323 16 11 14 10 18 -6 30 -27 20 -592 21 -620 0z" />
        <path d="M6902 7008 c-7 -7 -12 -20 -12 -29 0 -10 -11 -20 -25 -23 -33 -8 -34
-43 -1 -56 17 -6 26 -18 28 -37 4 -33 28 -41 52 -18 11 11 25 14 50 10 41 -8
54 7 35 42 -11 20 -11 28 0 44 17 28 -2 50 -38 43 -19 -4 -32 0 -45 15 -22 24
-28 25 -44 9z" />
        <path d="M7852 6919 c-23 -23 -42 -48 -42 -55 0 -28 31 -27 60 1 l29 28 36
-32 c20 -17 39 -31 42 -31 4 0 22 14 40 32 l33 32 29 -28 c31 -30 61 -30 61
-1 0 18 -78 94 -96 95 -5 0 -23 -14 -39 -30 l-29 -30 -31 30 c-17 16 -35 30
-41 30 -5 0 -28 -19 -52 -41z" />
        <path d="M8762 6880 c-12 -11 -26 -20 -32 -20 -5 0 -10 -4 -10 -10 0 -5 -6
-10 -13 -10 -19 0 -47 -33 -47 -53 0 -28 58 -57 100 -51 46 8 46 7 64 59 15
46 13 69 -10 93 -17 17 -27 15 -52 -8z" />
        <path d="M11027 6553 c-4 -3 -7 -17 -7 -30 0 -16 -6 -23 -19 -23 -10 0 -24 -7
-31 -15 -15 -18 -1 -40 31 -50 12 -4 19 -16 19 -31 0 -32 25 -41 50 -19 14 13
28 16 50 11 36 -7 51 15 31 45 -8 15 -8 23 0 38 19 30 4 54 -29 46 -21 -4 -33
-1 -47 15 -18 20 -36 25 -48 13z" />
        <path d="M11763 6346 c-16 -14 -42 -43 -58 -65 -18 -26 -39 -44 -59 -49 -34
-9 -42 -38 -15 -55 25 -15 67 11 117 73 25 30 51 59 59 63 29 17 60 -3 96 -61
71 -115 144 -117 228 -6 66 87 92 85 154 -12 38 -60 59 -74 108 -74 41 0 73
23 122 91 33 44 41 50 69 47 25 -2 38 -14 69 -60 42 -65 75 -91 109 -86 37 5
35 36 -4 52 -22 9 -42 29 -57 58 -34 62 -60 87 -96 94 -45 8 -87 -16 -133 -75
-68 -89 -92 -89 -152 0 -19 29 -50 62 -69 73 -52 30 -101 9 -161 -69 -38 -49
-52 -60 -76 -60 -24 0 -35 9 -61 50 -18 28 -44 60 -58 73 -36 31 -94 30 -132
-2z" />
        <path d="M14069 6281 c-23 -23 -29 -38 -29 -71 0 -117 167 -139 196 -26 25
100 -94 169 -167 97z" />
        <path d="M14710 6296 c-128 -34 -209 -141 -210 -277 0 -124 82 -237 195 -269
25 -7 45 -16 45 -20 0 -18 -98 -299 -147 -425 -52 -130 -134 -315 -159 -359
-10 -17 -16 -18 -76 -7 -298 52 -598 -93 -752 -362 -23 -41 -32 -48 -49 -43
-329 97 -663 -9 -849 -269 -99 -138 -152 -310 -146 -475 l2 -85 -81 -7 c-225
-18 -425 -155 -528 -359 -48 -97 -53 -132 -20 -137 16 -2 25 9 43 58 95 245
346 405 607 387 159 -11 290 -73 412 -196 48 -48 78 -71 88 -67 31 11 13 43
-69 122 -96 94 -202 153 -323 181 l-73 17 -1 61 c-3 238 56 400 201 546 183
185 431 249 692 179 39 -11 40 -12 33 -43 -5 -18 -8 -48 -9 -67 -1 -28 3 -35
18 -35 14 0 24 19 45 80 68 202 220 360 415 431 91 33 205 46 296 34 41 -5 78
-10 83 -10 17 0 -141 -284 -268 -480 -205 -315 -405 -560 -690 -845 -283 -284
-502 -463 -815 -670 -1315 -866 -2915 -1082 -4400 -593 -709 233 -1358 618
-1905 1131 -468 438 -827 922 -1112 1495 -62 126 -90 172 -103 172 -10 0 -20
-6 -23 -14 -14 -35 257 -533 426 -786 313 -468 765 -944 1212 -1275 606 -450
1300 -766 2019 -919 792 -169 1615 -150 2386 55 1571 419 2869 1557 3493 3059
35 85 88 226 118 312 30 87 57 157 60 155 3 -1 62 -55 130 -119 157 -147 283
-252 334 -278 l40 -20 17 34 c9 18 33 43 52 54 44 26 88 94 93 147 4 35 -1 49
-45 115 -53 78 -155 213 -201 265 -14 17 -49 57 -76 90 -28 33 -53 62 -57 65
-4 4 -17 33 -28 65 -39 112 -102 176 -202 202 -62 16 -79 16 -138 -1z m154
-60 c78 -33 144 -134 133 -204 -3 -22 -4 -21 -6 8 -1 34 -22 76 -45 92 -23 16
-60 7 -97 -23 -40 -31 -176 -167 -190 -191 -21 -32 0 -81 35 -83 6 -1 25 -7
41 -15 28 -13 29 -14 7 -18 -61 -10 -160 77 -183 163 -28 103 32 226 131 269
44 19 131 20 174 2z" />
        <path d="M5309 6286 c-31 -11 -246 -120 -524 -266 -124 -65 -327 -171 -530
-275 -259 -133 -354 -185 -361 -197 -3 -5 0 -17 9 -25 13 -14 28 -9 139 50 67
35 263 137 433 225 171 88 380 197 465 242 341 178 395 203 452 203 98 0 172
-48 214 -138 26 -54 32 -134 14 -181 l-11 -27 -34 33 c-25 25 -37 47 -46 89
-26 128 -166 189 -270 118 -70 -47 -101 -126 -79 -200 17 -57 86 -123 138
-132 48 -8 101 -56 80 -72 -7 -6 -110 -60 -228 -121 -341 -176 -365 -189 -368
-207 -10 -46 22 -34 325 124 170 89 315 161 322 161 7 0 43 -26 80 -59 145
-129 215 -172 279 -174 l47 -2 -1 35 c-1 19 -10 55 -22 80 -26 57 -109 184
-152 234 l-33 38 19 51 c27 74 24 168 -7 232 -64 134 -222 207 -350 161z" />
        <path d="M13522 5975 c-39 -17 -66 -72 -57 -116 14 -61 99 -99 156 -69 52 28
64 114 22 159 -34 36 -77 45 -121 26z" />
        <path d="M4804 5794 c-274 -151 -314 -180 -270 -197 25 -10 576 300 576 323 0
10 -6 20 -13 23 -8 3 -140 -64 -293 -149z" />
        <path d="M4913 5699 c-117 -65 -163 -96 -163 -109 0 -10 6 -20 14 -23 13 -5
335 167 348 186 10 16 -2 37 -21 37 -9 0 -89 -41 -178 -91z" />
        <path d="M14085 5778 c-40 -22 -65 -52 -76 -90 -13 -51 15 -119 60 -142 124
-65 255 77 174 188 -35 48 -112 70 -158 44z m84 -53 c50 -25 57 -91 15 -124
-35 -28 -69 -26 -99 4 -49 48 -21 119 53 134 2 1 16 -6 31 -14z" />
        <path d="M6120 5411 c-102 -56 -107 -210 -8 -284 41 -31 115 -33 162 -5 58 34
79 68 84 135 3 48 0 64 -20 92 -36 53 -71 74 -130 78 -38 2 -63 -2 -88 -16z
m125 -47 c106 -50 69 -204 -49 -204 -111 0 -145 161 -43 205 41 18 52 18 92
-1z" />
        <path d="M7773 5285 c-73 -31 -85 -147 -20 -190 14 -9 42 -19 63 -22 31 -5 56
-23 127 -90 73 -70 134 -113 162 -113 3 0 5 10 5 23 0 28 -63 125 -129 197
-39 42 -50 63 -51 88 0 48 -27 92 -65 108 -42 17 -51 17 -92 -1z" />
        <path d="M9913 5270 c-44 -20 -78 -62 -89 -113 -6 -27 -8 -28 -48 -22 -31 5
-45 3 -54 -8 -21 -25 -4 -47 37 -47 54 0 96 -30 116 -84 17 -44 17 -48 0 -91
-22 -59 -15 -79 25 -70 42 9 91 -10 131 -51 33 -34 34 -38 34 -114 -1 -55 3
-81 12 -84 20 -8 41 21 48 68 15 98 -54 202 -149 228 l-43 11 5 44 c5 45 -9
92 -40 132 -49 64 0 161 82 161 47 0 65 24 35 46 -25 19 -52 17 -102 -6z" />
        <path d="M10090 3796 c-120 -26 -216 -106 -265 -219 l-28 -64 -36 8 c-57 13
-172 10 -236 -6 -184 -47 -333 -194 -389 -384 -17 -59 -22 -166 -7 -175 23
-14 41 7 41 48 0 60 26 150 62 218 94 176 307 283 495 248 37 -7 81 -13 97
-14 28 -1 30 2 32 37 2 20 15 60 31 88 104 191 359 227 510 72 29 -30 53 -57
53 -62 0 -4 -24 -15 -52 -24 -74 -24 -152 -69 -156 -90 -6 -32 28 -30 101 7
266 132 570 7 672 -277 36 -100 84 -84 52 16 -19 60 -16 63 58 72 133 17 269
-62 330 -191 40 -84 84 -66 50 22 -25 66 -105 148 -181 185 -75 37 -175 49
-251 30 l-48 -12 -30 38 c-111 141 -267 223 -425 223 l-57 0 -37 54 c-59 86
-136 136 -241 155 -69 13 -74 13 -145 -3z" />
    </g>
</svg>