<?xml version="1.0" standalone="no"?>
<!DOCTYPE svg PUBLIC "-//W3C//DTD SVG 20010904//EN"
 "http://www.w3.org/TR/2001/REC-SVG-20010904/DTD/svg10.dtd">
<svg version="1.0" xmlns="http://www.w3.org/2000/svg"
 width="5253.000000pt" height="3039.000000pt" viewBox="0 0 5253.000000 3039.000000"
 preserveAspectRatio="xMidYMid meet">
<metadata>
Created by potrace 1.16, written by Peter Selinger 2001-2019
</metadata>
<g transform="translate(0.000000,3039.000000) scale(0.100000,-0.100000)"
fill="#000000" stroke="none">
<path d="M19604 24170 c-43 -17 -64 -58 -64 -126 l0 -63 -42 -11 c-109 -26
-119 -31 -138 -63 -45 -73 -9 -130 105 -170 l70 -25 5 -80 c6 -86 17 -107 65
-128 49 -20 81 -7 139 58 l53 60 82 -27 c69 -23 86 -25 115 -15 43 14 66 48
66 97 0 29 -10 50 -40 88 -22 28 -40 54 -40 58 0 5 18 29 40 54 33 38 40 53
40 88 0 28 -7 48 -21 64 -36 39 -62 43 -153 22 l-84 -18 -47 62 c-60 80 -96
98 -151 75z"/>
<path d="M15377 22999 c-50 -29 -58 -117 -14 -156 12 -11 270 -168 572 -349
612 -365 600 -359 656 -296 33 37 38 84 13 120 -8 12 -267 173 -575 357 -585
350 -597 356 -652 324z"/>
<path d="M16960 22066 c-25 -8 -40 -22 -54 -49 -16 -34 -17 -42 -4 -75 11 -31
31 -48 113 -99 133 -83 221 -174 273 -285 53 -110 66 -172 66 -298 -1 -86 -6
-119 -28 -185 -62 -186 -208 -328 -400 -392 -68 -22 -99 -27 -196 -27 -99 0
-125 4 -188 26 -47 17 -269 144 -642 367 -626 375 -613 369 -671 312 -32 -32
-38 -71 -17 -116 9 -20 153 -111 567 -359 306 -184 579 -345 608 -360 105 -52
195 -71 348 -71 155 0 213 12 341 70 105 48 180 103 270 198 154 162 223 355
211 595 -14 294 -154 524 -418 687 -110 68 -133 76 -179 61z"/>
<path d="M14559 21797 c-42 -28 -57 -74 -38 -118 10 -25 44 -53 148 -121 154
-100 180 -107 233 -59 45 40 46 98 3 140 -44 44 -264 181 -290 181 -12 0 -37
-10 -56 -23z"/>
<path d="M16590 21736 c-70 -19 -116 -45 -171 -94 -233 -209 -175 -591 108
-725 63 -30 75 -32 174 -32 101 0 108 1 181 38 82 40 162 116 199 188 84 166
56 367 -69 501 -107 114 -277 164 -422 124z m176 -201 c164 -49 212 -264 88
-389 -39 -38 -76 -56 -133 -63 -62 -7 -113 10 -164 56 -53 48 -77 101 -77 176
0 105 56 188 147 221 50 17 79 17 139 -1z"/>
<path d="M20845 21744 c-310 -44 -559 -138 -770 -289 -740 -530 -920 -1529
-409 -2281 35 -53 64 -97 62 -98 -10 -7 -2145 -759 -2153 -759 -5 0 -373 165
-816 367 -443 201 -815 366 -827 366 -11 0 -178 83 -369 185 -359 190 -420
215 -523 215 -126 0 -241 -46 -335 -132 -122 -111 -177 -236 -177 -403 0 -181
74 -332 217 -441 41 -31 924 -499 957 -507 15 -4 61 -35 104 -68 134 -107 346
-254 819 -570 161 -107 413 -256 585 -347 25 -13 61 -33 80 -44 80 -49 116
-69 133 -74 9 -4 17 -10 17 -15 0 -5 6 -9 13 -9 7 0 31 -9 52 -21 85 -43 219
-62 279 -39 23 8 26 15 26 59 0 61 -10 85 -78 181 -29 41 -58 83 -65 94 -7 10
-18 25 -25 32 -11 12 -11 14 0 14 7 0 157 11 332 25 175 14 336 25 357 25 l39
0 0 -268 c0 -307 4 -331 75 -410 76 -85 161 -112 353 -112 56 0 102 -3 102 -8
0 -4 -18 -124 -39 -267 -57 -375 -62 -464 -61 -1057 l0 -526 -71 -64 c-227
-200 -484 -538 -627 -825 -271 -541 -374 -1290 -271 -1971 l20 -134 -57 -101
c-494 -877 -1064 -1704 -1710 -2477 -1146 -1373 -2306 -2316 -3204 -2608 -222
-72 -308 -86 -530 -86 -171 0 -205 3 -275 22 -384 107 -639 419 -781 957 -74
282 -108 572 -124 1056 -14 423 -40 670 -101 966 -189 913 -638 1547 -1349
1904 -344 173 -734 275 -1220 320 -197 19 -693 16 -935 -5 -316 -27 -406 -40
-2395 -351 -1986 -310 -2083 -325 -2385 -351 -263 -22 -670 -16 -835 14 -399
73 -562 237 -521 528 44 316 262 703 790 1404 135 179 301 399 369 490 302
401 422 619 422 764 -1 148 -97 226 -279 226 -62 0 -225 -25 -280 -44 -78 -26
-100 -117 -41 -169 37 -33 43 -33 221 -2 65 11 121 15 144 11 37 -7 37 -8 32
-48 -13 -95 -145 -302 -450 -706 -580 -769 -663 -885 -808 -1123 -375 -617
-428 -1030 -164 -1294 232 -233 703 -313 1455 -249 283 24 396 41 2335 344
1018 159 1920 298 2005 310 273 35 478 51 760 57 1434 30 2335 -455 2753
-1482 160 -393 244 -824 267 -1365 26 -612 37 -743 85 -1008 120 -653 383
-1083 780 -1273 320 -153 700 -151 1156 7 1268 439 3000 2075 4366 4124 248
372 557 888 743 1243 46 86 87 157 93 157 5 0 46 -31 91 -69 132 -111 257
-202 311 -227 75 -34 303 -90 460 -114 77 -11 176 -28 220 -36 78 -16 101 -16
350 1 17 1 54 9 83 18 30 9 57 16 60 15 9 -2 41 10 75 28 26 13 21 -1 -68
-173 -54 -104 -154 -297 -222 -430 -69 -134 -128 -243 -131 -243 -4 0 -86 75
-182 166 -96 91 -189 172 -205 179 -41 18 -80 8 -110 -27 -27 -32 -33 -92 -12
-118 7 -8 98 -96 202 -195 105 -98 258 -245 340 -325 83 -80 197 -182 255
-226 267 -207 665 -446 1228 -739 94 -49 172 -93 172 -99 0 -13 -168 -307
-262 -458 -70 -114 -82 -128 -101 -122 -152 45 -673 249 -947 370 -200 88
-590 283 -749 374 -607 348 -974 693 -1075 1006 -22 68 -55 99 -108 99 -33 0
-45 -6 -70 -34 -27 -30 -30 -40 -26 -80 5 -55 77 -211 138 -302 326 -485 1115
-987 2250 -1434 129 -51 289 -112 356 -135 l120 -41 -23 -49 c-55 -116 -83
-311 -65 -466 15 -133 35 -204 82 -300 104 -213 329 -334 524 -282 l44 11 73
-59 c41 -32 92 -72 113 -89 21 -16 75 -58 120 -93 86 -66 371 -282 421 -319
39 -28 379 -257 472 -316 90 -59 250 -146 280 -153 13 -4 26 -10 29 -15 3 -5
11 -9 19 -9 8 0 48 -16 90 -36 42 -20 81 -37 88 -38 7 -1 17 -5 24 -9 6 -4 18
-4 27 -1 9 3 16 1 16 -5 0 -6 15 -11 33 -11 18 0 38 -5 43 -10 13 -13 100 -21
132 -13 18 4 21 8 10 14 -10 7 -9 9 4 9 9 0 18 -4 20 -9 4 -13 92 28 104 48
17 33 43 86 50 106 10 28 6 185 -4 199 -5 6 -17 43 -28 81 -10 39 -24 81 -31
95 -7 14 -13 33 -13 43 0 10 -8 34 -18 55 -10 20 -27 64 -37 97 -10 33 -23 67
-29 75 -7 8 -23 42 -35 75 -25 64 -115 248 -173 353 -31 58 -90 143 -219 315
-56 74 -439 464 -559 568 -47 41 -132 117 -190 170 -58 52 -149 131 -204 175
-54 43 -103 84 -110 89 -6 6 -11 43 -11 91 0 74 -4 88 -39 160 -31 62 -58 98
-130 170 -88 87 -204 173 -256 189 -14 4 -32 13 -40 20 -8 6 -90 51 -183 98
-448 232 -1020 572 -1247 743 -36 27 -102 88 -148 135 l-83 87 62 123 c81 162
202 392 474 899 122 228 260 485 306 572 46 86 88 158 92 160 5 1 49 -67 99
-152 50 -85 202 -342 338 -570 978 -1636 1793 -2855 2297 -3431 96 -110 288
-299 304 -299 5 0 9 -6 9 -13 0 -18 161 -281 276 -450 136 -201 242 -334 372
-468 216 -224 372 -300 517 -251 33 11 64 17 70 13 5 -4 64 -50 130 -102 382
-302 518 -401 825 -602 78 -52 254 -147 271 -147 7 0 75 -31 152 -70 76 -38
144 -67 150 -63 6 3 33 5 59 4 40 -2 52 2 68 21 11 13 20 19 20 13 0 -5 6 0
13 12 13 24 10 126 -4 117 -8 -4 -12 17 -8 42 0 4 -4 10 -9 13 -5 3 -19 27
-30 52 -12 25 -28 52 -37 59 -8 7 -15 17 -15 22 0 11 -42 72 -52 76 -5 2 -8 8
-8 13 0 5 -15 28 -32 52 -18 24 -60 81 -93 126 -32 46 -66 91 -75 102 -8 10
-28 35 -45 56 -16 21 -48 58 -70 83 -23 25 -73 83 -111 130 -39 47 -131 148
-205 225 -74 77 -156 165 -183 195 -251 278 -518 548 -660 667 l-109 91 -59
158 c-32 87 -78 200 -103 251 -37 76 -45 102 -45 150 0 107 -24 164 -218 528
-105 198 -123 222 -166 230 -67 13 -139 -59 -120 -118 4 -12 69 -138 145 -280
141 -265 166 -330 154 -394 -23 -123 -156 -252 -357 -348 -95 -45 -191 -75
-239 -75 -117 0 -493 450 -1037 1242 -172 250 -482 718 -482 728 0 4 9 18 19
31 l19 24 24 -21 c43 -40 402 -316 473 -364 39 -26 102 -64 140 -84 39 -19 88
-46 110 -59 129 -76 508 -256 545 -260 14 -2 30 -6 35 -9 6 -3 47 -6 91 -7 87
-2 114 10 114 49 0 19 -70 163 -82 168 -5 2 -8 8 -8 13 0 8 -28 42 -75 93 -6
6 -46 54 -89 106 -96 116 -408 428 -531 530 -49 41 -113 95 -140 120 -93 83
-122 108 -171 145 -27 21 -72 58 -99 84 -28 25 -65 58 -83 73 -27 22 -32 34
-32 70 0 24 -7 73 -14 109 -39 183 -163 302 -377 360 -56 16 -117 22 -251 26
-223 7 -263 1 -303 -42 l-31 -33 -69 112 c-301 488 -805 1347 -805 1372 0 17
40 104 48 104 4 0 79 -57 166 -126 204 -160 330 -243 526 -344 47 -24 114 -61
150 -83 36 -22 135 -78 220 -124 85 -47 207 -115 270 -152 63 -37 167 -96 230
-131 63 -35 131 -72 150 -83 19 -11 78 -42 130 -70 52 -27 124 -66 160 -87 36
-20 101 -56 145 -80 44 -24 98 -53 121 -66 22 -13 43 -22 46 -19 2 3 53 -98
113 -223 314 -657 559 -1046 835 -1323 231 -232 425 -335 650 -346 134 -6 223
12 344 71 337 164 638 575 935 1279 72 171 110 270 215 562 226 629 490 1085
830 1434 379 387 794 599 1337 682 174 27 562 32 749 11 1459 -167 3220 -1072
6130 -3150 478 -342 812 -584 1711 -1243 1532 -1122 2161 -1571 2892 -2063
846 -570 1638 -1051 2167 -1316 492 -247 743 -290 881 -152 132 132 102 372
-111 907 -37 94 -141 341 -230 550 -409 960 -590 1477 -706 2015 -245 1136
-44 1962 608 2502 747 619 2072 907 3948 858 212 -6 1539 -44 2950 -85 3172
-92 2822 -85 2857 -59 45 33 58 68 41 112 -27 73 222 61 -2928 152 -1565 45
-2989 85 -3165 88 -1043 16 -2022 -101 -2709 -324 -1134 -368 -1745 -1011
-1883 -1979 -28 -199 -25 -640 6 -870 87 -650 278 -1268 707 -2283 338 -799
384 -913 450 -1130 43 -138 56 -274 31 -307 -23 -30 -127 -26 -241 9 -374 115
-1237 606 -2306 1311 -754 497 -1456 995 -3115 2210 -1811 1326 -2459 1785
-3350 2371 -1864 1225 -3293 1887 -4435 2053 -232 34 -407 44 -639 38 -429
-12 -748 -86 -1096 -257 -413 -203 -774 -535 -1068 -982 -221 -337 -351 -612
-562 -1191 -225 -617 -451 -1052 -690 -1327 -140 -161 -308 -270 -453 -292
-332 -52 -698 266 -1087 942 -90 155 -296 570 -289 581 2 4 22 0 43 -9 22 -9
37 -21 34 -25 -3 -5 1 -7 8 -6 8 2 24 -2 37 -9 12 -7 22 -10 22 -7 0 4 14 -3
30 -15 17 -12 30 -18 30 -14 0 4 8 0 18 -8 16 -14 60 -30 73 -25 3 1 13 -5 22
-15 9 -9 40 -19 69 -23 83 -10 108 -16 108 -26 0 -5 5 -9 11 -9 5 0 7 5 4 10
-3 6 4 10 17 11 44 2 83 -3 86 -11 2 -4 11 -6 22 -3 10 3 33 -2 51 -11 18 -9
38 -16 46 -16 7 0 13 -4 13 -10 0 -11 63 -8 95 5 77 29 105 46 105 65 0 14 7
20 23 20 24 0 58 40 35 40 -7 1 2 7 20 15 40 17 82 62 82 86 0 11 6 19 14 19
7 0 20 7 27 16 7 9 24 20 37 25 54 21 62 131 18 246 -40 105 -131 279 -189
360 -85 121 -426 548 -493 619 -21 22 -63 69 -91 105 -29 35 -184 195 -344
354 -267 265 -297 298 -351 389 -123 207 -261 387 -451 591 -90 95 -104 114
-72 95 62 -37 185 -114 235 -146 69 -45 419 -211 475 -225 28 -7 81 -13 118
-15 68 -2 69 -2 82 29 21 50 -27 131 -238 395 -68 86 -135 164 -181 212 -40
41 -94 140 -89 161 5 16 11 18 42 13 20 -4 40 -9 46 -12 5 -3 16 -7 25 -7 21
-2 123 -33 201 -61 93 -34 289 -36 309 -3 6 8 9 8 12 -2 3 -9 10 -4 22 14 10
15 24 27 31 27 6 0 25 11 41 25 16 14 37 28 47 31 9 3 32 18 49 34 17 16 35
27 40 24 4 -3 8 -1 8 5 0 6 13 17 29 26 16 8 32 24 36 35 3 11 9 19 13 17 11
-3 87 74 84 84 -1 5 5 12 13 15 8 4 22 21 31 39 10 22 21 32 30 28 9 -3 14 2
14 15 0 12 11 24 29 32 21 8 27 17 24 31 -3 10 0 19 6 19 6 0 11 7 11 15 0 8
5 15 11 15 5 0 7 5 4 10 -3 6 1 10 9 10 9 0 16 8 16 19 0 11 11 28 25 39 13
11 22 22 19 25 -6 5 16 77 26 87 12 12 21 160 10 175 -4 6 -16 44 -26 85 -10
41 -25 79 -32 83 -7 5 -10 12 -7 16 2 5 -4 35 -15 66 -23 67 -26 128 -7 143
16 14 86 6 107 -12 8 -7 21 -11 28 -9 6 3 12 0 12 -6 0 -6 6 -11 14 -11 13 0
180 -83 201 -100 6 -4 44 -25 85 -45 41 -21 122 -63 180 -95 334 -183 828
-425 853 -419 1 0 36 -15 79 -34 42 -19 91 -38 110 -42 18 -4 35 -11 38 -15 8
-10 106 -40 134 -40 14 0 27 -4 31 -9 6 -11 109 -46 180 -62 61 -13 255 -18
255 -6 0 5 7 7 15 3 8 -3 15 -1 15 4 0 6 9 10 21 10 11 0 18 4 15 9 -3 5 8 19
24 33 33 27 52 68 52 113 0 27 -45 143 -61 155 -4 3 -12 17 -18 33 -7 15 -17
27 -22 27 -6 0 -8 7 -5 15 4 8 1 15 -5 15 -6 0 -11 6 -11 13 0 7 -22 40 -49
74 -27 33 -55 71 -61 84 -7 12 -17 28 -21 33 -101 126 -129 163 -129 174 0 6
-3 12 -7 12 -5 0 -19 17 -33 38 -23 34 -199 238 -266 307 -67 70 -163 175
-214 235 -30 35 -72 83 -93 106 -26 29 -33 41 -20 38 341 -78 996 -238 1018
-248 17 -7 127 -28 245 -45 228 -34 236 -37 330 -113 149 -120 224 -174 435
-312 132 -87 319 -211 415 -276 96 -64 238 -154 315 -200 77 -46 196 -118 265
-160 69 -43 141 -86 160 -98 19 -11 76 -44 125 -74 50 -29 104 -61 120 -70 28
-17 290 -147 420 -209 33 -15 85 -38 115 -49 30 -12 80 -33 110 -47 30 -14 64
-29 75 -34 11 -4 41 -17 67 -29 26 -12 50 -21 54 -20 4 1 10 -4 14 -10 5 -7
28 -12 54 -12 25 1 46 -3 46 -8 0 -6 12 -10 26 -10 14 0 32 -6 40 -14 7 -8 23
-12 34 -9 11 3 20 1 20 -5 0 -10 58 -20 137 -25 18 -1 33 -6 33 -10 0 -5 5 -5
10 -2 6 4 24 8 41 10 59 8 87 27 94 64 5 26 9 31 16 20 5 -8 9 -12 10 -9 0 3
2 15 5 28 2 13 -1 33 -8 45 -7 12 -11 27 -10 33 1 6 -9 23 -22 37 -13 14 -21
28 -18 31 3 3 0 6 -6 6 -7 0 -12 8 -12 19 0 10 -9 30 -21 45 -11 14 -17 26
-12 26 4 0 3 4 -2 8 -18 12 -75 89 -75 100 0 6 -4 12 -10 14 -5 2 -27 28 -50
58 -22 30 -47 64 -55 75 -9 11 -29 38 -46 60 -16 22 -40 53 -52 69 -53 70
-232 258 -453 476 -298 294 -454 435 -819 741 -335 280 -345 290 -345 325 0
52 -38 182 -72 247 -61 115 -193 224 -330 273 -24 8 -309 55 -635 104 l-592
89 -720 181 c-396 100 -743 188 -771 196 -41 12 -55 23 -77 57 -14 23 -32 48
-40 55 -7 7 -13 17 -13 21 0 4 -8 16 -18 27 -9 10 -46 57 -81 104 -108 142
-154 197 -276 325 -16 17 -79 85 -140 150 -172 186 -696 707 -843 839 l-132
118 5 67 c4 36 8 76 11 88 7 38 -16 166 -40 219 -32 69 -85 126 -173 186 l-73
49 47 47 c37 36 69 89 138 224 l90 178 0 82 c-1 62 -6 95 -22 130 -32 69 -94
131 -164 163 -53 23 -71 27 -138 23 -88 -4 -145 -27 -215 -90 -38 -33 -62 -72
-135 -217 -48 -97 -90 -182 -93 -190 -3 -11 -40 10 -135 74 l-130 90 -6 115
c-21 424 -245 868 -576 1144 -220 182 -466 302 -739 357 -94 19 -392 34 -467
23z m303 -205 c53 -6 133 -19 177 -29 513 -119 930 -531 1059 -1046 25 -96 53
-290 44 -299 -2 -3 -22 4 -42 15 -21 10 -58 22 -82 26 -24 3 -47 11 -52 18 -5
6 -23 54 -41 106 -105 304 -377 563 -829 789 -236 118 -466 200 -766 275
l-170 42 110 37 c201 66 394 88 592 66z m-778 -296 c716 -139 1312 -442 1549
-787 62 -89 111 -226 111 -307 l0 -30 -31 36 c-17 19 -37 35 -45 35 -8 0 -14
6 -14 14 0 7 -7 19 -15 26 -8 7 -15 23 -15 36 0 13 -4 24 -9 24 -10 0 -55 76
-67 112 -3 12 -15 30 -25 41 -10 11 -15 25 -12 30 4 6 0 8 -10 4 -10 -4 -17
-2 -17 5 0 15 -39 47 -67 54 -12 4 -21 10 -18 15 3 4 -4 6 -15 4 -11 -2 -23 2
-27 9 -5 8 -48 18 -104 26 -77 10 -111 10 -170 0 -40 -7 -80 -16 -89 -20 -8
-4 -28 -14 -44 -21 -17 -8 -40 -23 -52 -34 -12 -11 -28 -25 -36 -31 -7 -6 -42
-43 -78 -83 -36 -40 -71 -78 -78 -84 -7 -7 -67 -76 -133 -154 -66 -79 -130
-151 -142 -160 -12 -10 -39 -38 -61 -63 -83 -97 -244 -254 -301 -295 -33 -23
-87 -56 -120 -71 -57 -28 -67 -29 -215 -31 -85 0 -165 -2 -177 -2 -17 -1 -25
-10 -33 -38 -16 -52 -1 -90 37 -96 15 -2 2 -3 -31 -2 -66 3 -63 0 -116 110
-83 175 -120 336 -127 551 -10 307 55 550 218 813 70 114 254 316 337 371 51
34 32 34 242 -7z m3033 -1014 c39 -20 57 -51 57 -100 0 -37 -13 -72 -71 -185
-85 -167 -110 -194 -177 -194 -50 1 -67 10 -95 50 -31 45 -21 86 57 246 59
120 81 156 108 172 36 24 87 28 121 11z m20 -918 c25 -31 47 -87 47 -124 0
-25 -9 -20 -72 38 -30 28 -74 66 -98 85 -23 19 -86 76 -139 126 -53 50 -123
114 -156 141 -122 101 -84 82 151 -74 132 -89 252 -175 267 -192z m-8296 -79
c47 -18 800 -416 816 -431 4 -5 -3 -15 -16 -24 -22 -14 -29 -14 -88 4 -78 25
-297 69 -339 69 -17 0 -29 -4 -26 -8 2 -4 -25 -9 -62 -9 -37 -1 -86 -8 -110
-17 -23 -8 -43 -15 -45 -15 -26 1 -90 -17 -94 -27 -3 -8 -11 -14 -17 -14 -22
0 -97 -41 -103 -55 -3 -8 -11 -15 -18 -15 -18 0 -24 -22 -11 -35 24 -23 106
-74 211 -131 61 -32 121 -65 135 -74 14 -8 51 -30 82 -48 31 -18 62 -40 68
-47 7 -8 18 -15 25 -15 6 0 29 -17 51 -38 47 -47 67 -72 57 -72 -7 0 -246 121
-423 214 -58 31 -162 86 -231 122 -183 95 -245 163 -270 297 -28 157 69 327
213 372 61 19 140 18 195 -3z m5224 -298 c24 -20 87 -68 139 -107 52 -39 120
-89 151 -113 31 -23 66 -47 78 -54 13 -6 20 -14 17 -17 -3 -3 -314 -18 -690
-32 -644 -25 -686 -28 -706 -46 -12 -11 -26 -27 -31 -36 -6 -13 -85 -299 -200
-731 l-9 -36 -248 -4 c-227 -3 -251 -5 -293 -24 -107 -50 -178 -145 -186 -248
l-6 -64 -41 -6 c-22 -3 -209 -17 -414 -32 -364 -26 -374 -26 -413 -8 -28 12
-165 142 -437 414 -383 382 -460 453 -790 734 -84 71 -152 135 -152 143 0 8 7
27 15 44 13 23 19 27 33 20 43 -23 1350 -614 1377 -623 26 -9 171 40 1233 416
1299 459 1239 441 1454 445 74 1 77 0 119 -35z m-861 -584 c6 -12 8 -31 4 -43
-6 -19 -5 -20 9 -8 14 11 23 10 59 -8 70 -35 138 -89 132 -105 -9 -23 -86 -56
-131 -56 -38 0 -42 3 -53 35 -6 19 -12 48 -12 65 -1 39 -15 38 -27 -2 -15 -53
-45 -133 -52 -138 -8 -6 -30 -71 -55 -159 -10 -36 -19 -60 -22 -53 -3 10 27
133 78 312 10 36 24 91 31 123 15 61 22 69 39 37z m2960 6 c118 -29 199 -70
376 -192 136 -92 178 -124 187 -140 4 -8 15 -14 22 -14 8 0 15 -4 15 -8 0 -4
12 -15 28 -24 42 -26 104 -87 98 -97 -6 -9 -74 1 -117 17 -65 25 -162 9 -174
-29 -4 -10 -10 -19 -14 -19 -4 0 -16 -16 -27 -35 -10 -20 -29 -43 -41 -51 -13
-8 -23 -22 -23 -32 0 -9 -9 -23 -20 -30 -12 -7 -18 -17 -15 -22 3 -6 2 -10 -2
-10 -5 0 -27 -24 -48 -52 -48 -64 -45 -59 -103 -133 -67 -85 -100 -121 -161
-179 -29 -28 -89 -85 -132 -127 -95 -91 -140 -119 -163 -100 -37 31 -58 121
-62 270 -4 156 8 283 51 539 42 245 61 310 107 377 74 108 101 120 218 91z
m-2709 -953 c102 -82 202 -159 222 -173 l37 -25 0 -253 c0 -155 -4 -261 -10
-273 -27 -49 -24 -49 -705 -49 -576 0 -640 2 -665 17 -16 9 -33 27 -39 40 -15
34 -15 776 0 806 30 58 13 57 514 57 l460 0 186 -147z m6307 -524 l613 -151
-5 -26 c-3 -15 -28 -182 -57 -372 -28 -190 -52 -346 -53 -347 -2 -3 -553 130
-1139 274 -90 22 -112 31 -130 55 -12 15 -37 44 -54 65 -18 20 -33 41 -33 46
0 5 -14 28 -31 52 -37 52 -35 76 9 87 17 5 32 13 32 18 0 6 4 10 9 10 5 0 22
5 38 12 15 6 39 13 53 15 13 2 30 8 36 14 6 5 14 6 17 2 4 -3 15 3 24 14 10
10 26 22 36 26 19 7 23 27 6 27 -8 0 -8 4 -1 13 28 34 31 170 5 222 -11 22
-23 55 -26 73 -6 29 -5 32 16 27 12 -2 298 -73 635 -156z m1336 -264 c559 -84
535 -80 597 -111 93 -46 155 -119 183 -214 18 -59 22 -210 6 -210 -13 0 -42
61 -65 135 -10 33 -22 69 -26 80 -5 11 -13 32 -18 47 -18 49 -49 47 -236 -16
-93 -31 -210 -63 -260 -72 -49 -9 -126 -22 -170 -29 -90 -16 -125 -25 -140
-35 -5 -4 -23 -10 -40 -14 -16 -4 -88 -36 -160 -71 -129 -63 -200 -114 -192
-138 2 -8 40 -14 118 -17 63 -3 119 -8 125 -12 6 -4 26 -9 45 -12 101 -12 128
-23 129 -49 0 -9 -139 -7 -155 2 -5 3 -23 7 -40 8 -40 2 -117 12 -190 24 -33
6 -81 13 -107 16 -54 6 -56 10 -39 99 5 27 28 177 50 334 50 343 47 330 69
330 10 0 242 -34 516 -75z m-7139 -95 c3 -5 13 -6 22 -3 14 5 15 1 10 -28 -11
-53 -118 -152 -187 -173 -63 -19 -106 -21 -116 -5 -4 7 0 16 9 21 9 4 22 14
29 21 14 13 69 50 136 91 24 15 46 35 49 44 13 37 35 52 48 32z m-894 -721
c108 -89 302 -230 389 -283 176 -107 223 -140 209 -145 -7 -2 -224 7 -482 20
l-470 23 7 160 c3 87 9 184 13 213 l6 54 142 -3 142 -3 44 -36z m249 -619
c311 -16 579 -30 595 -30 l30 -1 -40 -21 c-58 -30 -94 -66 -121 -123 -94 -198
117 -414 315 -325 l44 21 111 -37 c158 -52 347 -126 340 -133 -5 -5 -1835 -51
-1842 -46 -5 4 122 99 220 166 l98 66 47 -24 c40 -20 59 -24 114 -21 163 9
264 159 219 327 -15 56 -89 132 -146 149 -92 27 -184 10 -245 -45 -49 -45 -76
-95 -84 -159 -7 -53 3 -44 -227 -197 l-28 -19 0 241 c0 223 1 241 18 241 9 0
271 -14 582 -30z m1040 -173 c107 -51 190 -82 190 -70 0 2 7 -3 16 -12 9 -9
24 -13 35 -10 10 4 19 2 19 -4 0 -9 120 -54 136 -50 5 1 26 -5 46 -14 21 -10
51 -17 67 -17 l29 0 7 -77 c3 -43 9 -91 12 -106 l5 -28 -39 17 c-205 91 -517
211 -619 239 -6 2 -14 26 -17 54 -7 60 -28 104 -71 150 l-31 33 50 -25 c28
-13 102 -49 165 -80z m846 13 c107 -22 326 -73 387 -91 38 -10 38 -11 21 -30
-9 -10 -23 -19 -30 -19 -26 0 -148 -54 -220 -98 -49 -29 -89 -63 -119 -100
-42 -54 -104 -112 -122 -116 -8 -1 -43 452 -36 467 6 10 8 10 119 -13z m-32
-765 c137 -80 348 -214 371 -238 15 -15 -74 34 -119 66 -21 15 -45 27 -51 27
-7 0 -18 7 -25 15 -7 8 -20 15 -30 15 -10 0 -43 13 -74 30 -85 44 -119 48
-153 15 -31 -29 -110 -68 -248 -121 -213 -83 -245 -98 -420 -194 -33 -19 -81
-45 -107 -59 -26 -15 -66 -43 -90 -63 -24 -19 -56 -47 -73 -61 -37 -30 -92
-139 -105 -204 -15 -80 -4 -200 29 -328 42 -165 111 -482 111 -508 0 -7 -34
53 -76 133 -187 359 -399 656 -710 992 -142 154 -335 338 -476 452 -32 26 -58
51 -58 55 0 5 152 12 338 16 551 12 1775 42 1797 44 11 0 87 -37 169 -84z
m-2613 38 c8 -9 9 -14 3 -10 -6 3 -22 -15 -38 -41 -31 -54 -229 -459 -265
-542 -13 -30 -34 -77 -47 -105 -71 -156 -188 -464 -249 -655 -100 -314 -213
-783 -230 -954 -6 -59 -9 -67 -18 -50 -17 28 -15 519 1 664 68 587 238 1020
562 1428 77 98 248 282 261 282 4 0 13 -8 20 -17z m1030 -1059 c100 -131 202
-283 280 -419 70 -122 174 -337 185 -381 4 -16 15 -46 26 -66 16 -32 16 -42 6
-66 -24 -55 -152 -282 -159 -282 -4 0 -7 60 -7 133 0 104 -4 140 -18 172 -10
22 -17 44 -16 49 2 4 -3 14 -9 22 -12 15 -20 45 -44 169 -25 131 -45 196 -87
292 -10 24 -18 49 -18 56 0 7 -4 17 -9 23 -5 5 -25 46 -46 92 -37 84 -96 188
-153 273 -18 26 -32 51 -32 55 1 10 0 11 101 -122z m2101 -2508 c150 -29 227
-82 254 -172 16 -57 11 -151 -7 -123 -5 8 -9 25 -9 39 0 42 -20 99 -43 126
-22 25 -25 26 -65 13 -49 -14 -104 -64 -131 -117 -45 -88 -34 -199 40 -404 22
-61 37 -113 35 -116 -3 -2 -35 42 -72 99 -130 199 -414 652 -414 659 0 14 333
11 412 -4z m-595 -1788 c69 -71 124 -194 95 -212 -5 -3 -9 0 -9 7 0 17 -52
125 -63 132 -13 8 -50 -13 -50 -29 0 -22 -85 -266 -135 -386 -26 -63 -54 -132
-62 -154 -11 -32 -82 -194 -114 -261 -5 -11 -25 -67 -43 -125 -19 -58 -41
-123 -50 -145 -20 -52 -21 -194 -2 -220 11 -16 87 -42 134 -47 15 -2 16 -14 2
-23 -6 -4 -7 -11 -4 -17 5 -8 -10 -9 -49 -5 -133 13 -235 123 -282 302 -50
192 -13 435 82 545 72 85 168 234 323 505 56 99 110 188 118 197 14 17 16 16
41 -1 14 -11 45 -39 68 -63z m3063 -1093 c10 -22 27 -74 40 -115 12 -41 26
-79 30 -85 4 -5 14 -37 21 -70 7 -33 16 -65 20 -71 12 -15 41 -145 34 -152 -3
-3 -5 1 -5 9 0 8 -7 27 -15 43 -8 15 -12 32 -9 37 3 6 -6 19 -21 31 -14 11
-24 23 -21 25 3 3 -1 18 -10 34 -8 16 -14 30 -13 31 0 2 -4 16 -10 31 -6 16
-14 47 -17 70 -4 23 -17 64 -29 92 l-21 49 -17 -61 c-10 -34 -40 -117 -68
-185 -111 -270 -113 -305 -39 -465 11 -24 20 -46 20 -49 0 -15 39 -87 95 -174
87 -136 191 -222 229 -191 14 12 29 4 20 -10 -12 -21 -73 -7 -134 29 -149 90
-401 390 -638 758 -40 61 -72 113 -72 116 0 3 37 18 83 33 45 15 111 40 146
56 92 42 247 148 311 214 53 54 55 55 64 33 5 -13 17 -41 26 -63z"/>
<path d="M20188 21133 c-184 -147 -342 -453 -424 -823 -21 -94 -26 -144 -27
-275 -2 -147 0 -164 20 -209 13 -26 35 -61 50 -76 25 -26 37 -29 118 -35 80
-5 94 -4 122 14 55 35 65 60 79 209 42 426 128 730 266 930 47 68 52 100 27
167 -12 32 -34 71 -49 88 -23 26 -36 31 -86 35 -53 4 -62 1 -96 -25z"/>
<path d="M19208 17356 c-61 -17 -111 -56 -145 -114 -24 -40 -28 -58 -28 -122
1 -87 22 -138 79 -188 112 -98 290 -68 370 62 34 55 46 141 27 199 -41 123
-180 198 -303 163z"/>
<path d="M25768 19479 c-66 -15 -151 -65 -206 -119 -172 -173 -172 -439 0
-613 81 -82 165 -120 279 -125 143 -7 243 32 338 133 222 235 120 620 -190
716 -64 20 -157 23 -221 8z m157 -200 c52 -13 119 -67 144 -118 56 -110 19
-246 -82 -305 -88 -52 -191 -44 -268 22 -136 116 -92 337 80 398 45 16 71 17
126 3z"/>
<path d="M14813 15487 c-32 -18 -274 -277 -284 -306 -23 -60 31 -131 99 -131
34 0 46 9 136 101 l99 101 76 -75 c92 -90 117 -107 154 -107 45 0 97 57 97
107 0 36 -7 45 -132 167 -155 150 -193 172 -245 143z"/>
<path d="M30427 14745 c-114 -43 -187 -143 -187 -256 0 -74 46 -169 101 -209
129 -93 331 -44 395 95 43 91 28 204 -38 287 -58 74 -190 114 -271 83z"/>
<path d="M24335 14646 c-30 -30 -40 -68 -29 -106 11 -36 663 -728 710 -753 28
-16 39 -17 68 -7 49 16 71 45 71 94 0 50 29 16 -388 459 -164 174 -307 321
-317 327 -35 18 -89 12 -115 -14z"/>
<path d="M12894 12941 c-44 -19 -64 -59 -64 -127 l0 -63 -42 -11 c-100 -24
-118 -32 -137 -57 -53 -66 -10 -138 104 -176 l70 -24 5 -77 c4 -70 8 -80 33
-102 20 -17 40 -24 68 -24 35 0 48 7 99 56 l59 56 80 -27 c69 -23 86 -25 115
-15 42 13 66 48 66 94 0 24 -12 50 -44 94 l-44 60 30 28 c63 60 75 123 33 172
-33 39 -61 43 -155 22 l-78 -17 -35 46 c-67 88 -112 113 -163 92z"/>
<path d="M16383 12740 c-11 -5 -86 -70 -166 -144 -151 -141 -168 -166 -148
-218 14 -37 58 -68 97 -68 36 0 53 13 178 128 l68 64 108 -106 c103 -102 109
-106 151 -106 42 0 47 4 149 105 l105 105 90 -84 c50 -45 100 -88 112 -94 64
-34 143 12 143 83 0 20 -4 44 -9 54 -16 29 -280 265 -312 279 -16 7 -41 9 -54
6 -14 -3 -70 -52 -125 -108 l-99 -101 -98 96 c-122 120 -138 130 -190 109z"/>
<path d="M25224 12719 c-23 -8 -270 -265 -290 -301 -40 -71 30 -156 114 -140
12 2 65 48 117 101 l94 96 94 -93 c89 -87 97 -92 136 -92 56 0 101 42 101 93
0 45 -31 85 -167 220 -112 111 -152 134 -199 116z"/>
<path d="M27524 11323 c-45 -9 -69 -49 -74 -126 l-5 -71 -75 -17 c-89 -20
-120 -49 -120 -107 1 -61 34 -89 148 -126 l52 -18 0 -69 c0 -62 3 -72 29 -101
24 -27 36 -33 70 -33 36 0 47 7 99 58 l58 57 74 -25 c40 -14 82 -25 91 -25 32
0 70 23 85 51 25 49 18 82 -31 145 l-45 58 34 35 c66 70 75 124 27 172 -32 31
-73 37 -141 20 -93 -24 -85 -26 -136 40 -27 36 -61 67 -80 75 -18 8 -35 13
-36 13 -2 -1 -13 -4 -24 -6z"/>
<path d="M30255 10670 c-128 -26 -199 -85 -355 -294 -53 -72 -113 -145 -131
-163 -38 -36 -96 -63 -133 -63 -57 0 -106 -46 -106 -100 0 -32 25 -74 54 -89
42 -23 137 -8 221 33 86 42 148 106 257 259 124 175 174 217 259 217 91 0 133
-41 250 -239 147 -251 279 -339 463 -310 126 21 227 103 353 289 95 140 139
189 187 211 118 54 193 3 321 -215 147 -252 289 -344 471 -306 135 28 225 103
369 306 52 72 108 143 125 157 38 32 101 51 143 41 81 -17 119 -57 222 -230
119 -200 229 -295 362 -311 85 -10 143 30 143 97 0 45 -46 99 -85 100 -88 1
-144 50 -240 211 -38 63 -88 139 -112 171 -89 117 -208 174 -342 165 -147 -11
-248 -89 -400 -310 -107 -156 -158 -197 -246 -199 -84 -1 -139 51 -250 237
-87 146 -154 221 -237 266 -60 33 -67 34 -168 34 -96 0 -110 -3 -164 -29 -78
-38 -154 -116 -246 -251 -151 -224 -228 -272 -341 -215 -46 24 -75 61 -176
231 -114 193 -207 274 -337 298 -66 12 -74 12 -131 1z"/>
</g>
</svg>
