<svg id="visual" viewBox="0 0 960 540" width="960" height="540" xmlns="http://www.w3.org/2000/svg" xmlns:xlink="http://www.w3.org/1999/xlink" version="1.1"><g stroke-width="1" stroke-linejoin="bevel"><path d="M509 300L529 337L530 300Z" fill="#297ea6" stroke="#297ea6"></path><path d="M529 337L541 329L530 300Z" fill="#277297" stroke="#277297"></path><path d="M541 329L542 328L530 300Z" fill="#246688" stroke="#246688"></path><path d="M529 337L564 332L541 329Z" fill="#19435d" stroke="#19435d"></path><path d="M541 329L564 332L542 328Z" fill="#277297" stroke="#277297"></path><path d="M542 328L564 332L530 300Z" fill="#112e42" stroke="#112e42"></path><path d="M509 300L468 315L529 337Z" fill="#19435d" stroke="#19435d"></path><path d="M468 315L465 381L529 337Z" fill="#00101c" stroke="#00101c"></path><path d="M519 414L568 383L529 337Z" fill="#112e42" stroke="#112e42"></path><path d="M529 337L568 383L564 332Z" fill="#19435d" stroke="#19435d"></path><path d="M450 325L465 381L468 315Z" fill="#112e42" stroke="#112e42"></path><path d="M465 381L519 414L529 337Z" fill="#246688" stroke="#246688"></path><path d="M590 232L527 218L530 300Z" fill="#00101c" stroke="#00101c"></path><path d="M530 300L527 218L509 300Z" fill="#205a7a" stroke="#205a7a"></path><path d="M509 300L474 218L468 315Z" fill="#1d4e6b" stroke="#1d4e6b"></path><path d="M468 315L415 302L450 325Z" fill="#00101c" stroke="#00101c"></path><path d="M450 325L442 386L465 381Z" fill="#19435d" stroke="#19435d"></path><path d="M465 381L456 431L519 414Z" fill="#19435d" stroke="#19435d"></path><path d="M413 237L415 302L468 315Z" fill="#1d4e6b" stroke="#1d4e6b"></path><path d="M450 325L392 367L442 386Z" fill="#297ea6" stroke="#297ea6"></path><path d="M519 414L561 417L568 383Z" fill="#112e42" stroke="#112e42"></path><path d="M527 218L474 218L509 300Z" fill="#246688" stroke="#246688"></path><path d="M609 244L530 300L564 332Z" fill="#205a7a" stroke="#205a7a"></path><path d="M609 244L590 232L530 300Z" fill="#00101c" stroke="#00101c"></path><path d="M527 218L477 212L474 218Z" fill="#246688" stroke="#246688"></path><path d="M413 237L395 293L415 302Z" fill="#081a28" stroke="#081a28"></path><path d="M654 337L609 244L564 332Z" fill="#297ea6" stroke="#297ea6"></path><path d="M637 370L564 332L568 383Z" fill="#297ea6" stroke="#297ea6"></path><path d="M575 186L559 204L590 232Z" fill="#205a7a" stroke="#205a7a"></path><path d="M590 232L559 204L527 218Z" fill="#00101c" stroke="#00101c"></path><path d="M527 218L501 145L477 212Z" fill="#205a7a" stroke="#205a7a"></path><path d="M609 244L608 232L590 232Z" fill="#246688" stroke="#246688"></path><path d="M418 408L446 421L442 386Z" fill="#00101c" stroke="#00101c"></path><path d="M442 386L446 421L465 381Z" fill="#112e42" stroke="#112e42"></path><path d="M547 478L573 453L561 417Z" fill="#00101c" stroke="#00101c"></path><path d="M413 237L468 315L474 218Z" fill="#081a28" stroke="#081a28"></path><path d="M392 367L418 408L442 386Z" fill="#1d4e6b" stroke="#1d4e6b"></path><path d="M634 427L637 370L568 383Z" fill="#1d4e6b" stroke="#1d4e6b"></path><path d="M645 204L613 204L608 232Z" fill="#15384f" stroke="#15384f"></path><path d="M446 421L456 431L465 381Z" fill="#277297" stroke="#277297"></path><path d="M407 178L413 237L474 218Z" fill="#277297" stroke="#277297"></path><path d="M392 367L450 325L415 302Z" fill="#205a7a" stroke="#205a7a"></path><path d="M440 497L474 472L456 431Z" fill="#081a28" stroke="#081a28"></path><path d="M637 370L654 337L564 332Z" fill="#1d4e6b" stroke="#1d4e6b"></path><path d="M383 321L392 367L415 302Z" fill="#112e42" stroke="#112e42"></path><path d="M369 332L383 321L360 300Z" fill="#205a7a" stroke="#205a7a"></path><path d="M395 293L383 321L415 302Z" fill="#15384f" stroke="#15384f"></path><path d="M613 204L575 186L590 232Z" fill="#081a28" stroke="#081a28"></path><path d="M559 204L501 145L527 218Z" fill="#081a28" stroke="#081a28"></path><path d="M637 370L661 347L654 337Z" fill="#297ea6" stroke="#297ea6"></path><path d="M645 204L608 232L609 244Z" fill="#081a28" stroke="#081a28"></path><path d="M547 478L561 417L519 414Z" fill="#277297" stroke="#277297"></path><path d="M561 417L634 427L568 383Z" fill="#081a28" stroke="#081a28"></path><path d="M637 370L690 356L661 347Z" fill="#19435d" stroke="#19435d"></path><path d="M677 292L609 244L654 337Z" fill="#00101c" stroke="#00101c"></path><path d="M608 232L613 204L590 232Z" fill="#0c2435" stroke="#0c2435"></path><path d="M360 300L383 321L395 293Z" fill="#00101c" stroke="#00101c"></path><path d="M383 321L371 347L392 367Z" fill="#112e42" stroke="#112e42"></path><path d="M392 367L357 447L418 408Z" fill="#1d4e6b" stroke="#1d4e6b"></path><path d="M369 332L371 347L383 321Z" fill="#205a7a" stroke="#205a7a"></path><path d="M573 453L634 427L561 417Z" fill="#246688" stroke="#246688"></path><path d="M692 311L677 292L654 337Z" fill="#246688" stroke="#246688"></path><path d="M445 499L474 472L440 497Z" fill="#081a28" stroke="#081a28"></path><path d="M456 431L474 472L519 414Z" fill="#297ea6" stroke="#297ea6"></path><path d="M356 251L360 300L395 293Z" fill="#15384f" stroke="#15384f"></path><path d="M369 332L311 318L371 347Z" fill="#081a28" stroke="#081a28"></path><path d="M474 472L547 478L519 414Z" fill="#19435d" stroke="#19435d"></path><path d="M573 453L596 483L634 427Z" fill="#15384f" stroke="#15384f"></path><path d="M693 265L645 204L609 244Z" fill="#205a7a" stroke="#205a7a"></path><path d="M613 204L637 182L575 186Z" fill="#277297" stroke="#277297"></path><path d="M690 356L692 311L661 347Z" fill="#15384f" stroke="#15384f"></path><path d="M661 347L692 311L654 337Z" fill="#00101c" stroke="#00101c"></path><path d="M677 292L693 265L609 244Z" fill="#246688" stroke="#246688"></path><path d="M555 131L501 145L559 204Z" fill="#1d4e6b" stroke="#1d4e6b"></path><path d="M477 212L407 178L474 218Z" fill="#277297" stroke="#277297"></path><path d="M508 129L501 145L555 131Z" fill="#081a28" stroke="#081a28"></path><path d="M715 380L690 356L715 395Z" fill="#205a7a" stroke="#205a7a"></path><path d="M368 191L356 251L413 237Z" fill="#277297" stroke="#277297"></path><path d="M413 237L356 251L395 293Z" fill="#0c2435" stroke="#0c2435"></path><path d="M474 472L543 495L547 478Z" fill="#112e42" stroke="#112e42"></path><path d="M547 478L596 483L573 453Z" fill="#19435d" stroke="#19435d"></path><path d="M436 128L407 178L477 212Z" fill="#19435d" stroke="#19435d"></path><path d="M666 177L637 182L645 204Z" fill="#297ea6" stroke="#297ea6"></path><path d="M645 204L637 182L613 204Z" fill="#205a7a" stroke="#205a7a"></path><path d="M692 311L693 265L677 292Z" fill="#1d4e6b" stroke="#1d4e6b"></path><path d="M543 495L596 483L547 478Z" fill="#205a7a" stroke="#205a7a"></path><path d="M698 423L690 356L637 370Z" fill="#277297" stroke="#277297"></path><path d="M596 483L645 452L634 427Z" fill="#1d4e6b" stroke="#1d4e6b"></path><path d="M555 131L559 204L575 186Z" fill="#0c2435" stroke="#0c2435"></path><path d="M501 145L436 128L477 212Z" fill="#277297" stroke="#277297"></path><path d="M632 116L555 131L575 186Z" fill="#112e42" stroke="#112e42"></path><path d="M356 251L328 301L360 300Z" fill="#081a28" stroke="#081a28"></path><path d="M360 300L328 301L369 332Z" fill="#246688" stroke="#246688"></path><path d="M440 497L446 421L418 408Z" fill="#297ea6" stroke="#297ea6"></path><path d="M736 299L701 246L693 265Z" fill="#277297" stroke="#277297"></path><path d="M693 265L701 246L645 204Z" fill="#246688" stroke="#246688"></path><path d="M736 299L693 265L692 311Z" fill="#19435d" stroke="#19435d"></path><path d="M440 497L456 431L446 421Z" fill="#0c2435" stroke="#0c2435"></path><path d="M491 540L540 540L543 495Z" fill="#0c2435" stroke="#0c2435"></path><path d="M440 497L418 408L357 447Z" fill="#112e42" stroke="#112e42"></path><path d="M357 447L392 367L342 443Z" fill="#0c2435" stroke="#0c2435"></path><path d="M407 178L368 191L413 237Z" fill="#246688" stroke="#246688"></path><path d="M356 251L331 235L328 301Z" fill="#277297" stroke="#277297"></path><path d="M372 143L368 191L407 178Z" fill="#19435d" stroke="#19435d"></path><path d="M701 246L666 177L645 204Z" fill="#1d4e6b" stroke="#1d4e6b"></path><path d="M637 182L632 116L575 186Z" fill="#00101c" stroke="#00101c"></path><path d="M698 423L637 370L634 427Z" fill="#277297" stroke="#277297"></path><path d="M756 326L736 299L692 311Z" fill="#277297" stroke="#277297"></path><path d="M368 191L331 235L356 251Z" fill="#081a28" stroke="#081a28"></path><path d="M672 469L698 423L645 452Z" fill="#277297" stroke="#277297"></path><path d="M645 452L698 423L634 427Z" fill="#277297" stroke="#277297"></path><path d="M342 443L392 367L371 347Z" fill="#112e42" stroke="#112e42"></path><path d="M452 115L436 128L501 145Z" fill="#081a28" stroke="#081a28"></path><path d="M258 261L311 318L328 301Z" fill="#1d4e6b" stroke="#1d4e6b"></path><path d="M328 301L311 318L369 332Z" fill="#205a7a" stroke="#205a7a"></path><path d="M698 423L715 395L690 356Z" fill="#00101c" stroke="#00101c"></path><path d="M484 73L452 115L508 129Z" fill="#19435d" stroke="#19435d"></path><path d="M508 129L452 115L501 145Z" fill="#0c2435" stroke="#0c2435"></path><path d="M596 483L672 469L645 452Z" fill="#277297" stroke="#277297"></path><path d="M698 423L745 456L715 395Z" fill="#277297" stroke="#277297"></path><path d="M643 540L672 469L596 483Z" fill="#081a28" stroke="#081a28"></path><path d="M296 370L342 443L371 347Z" fill="#277297" stroke="#277297"></path><path d="M387 525L429 540L440 497Z" fill="#112e42" stroke="#112e42"></path><path d="M756 326L690 356L715 380Z" fill="#00101c" stroke="#00101c"></path><path d="M756 326L692 311L690 356Z" fill="#15384f" stroke="#15384f"></path><path d="M701 246L694 164L666 177Z" fill="#205a7a" stroke="#205a7a"></path><path d="M491 540L543 495L474 472Z" fill="#19435d" stroke="#19435d"></path><path d="M543 495L571 540L596 483Z" fill="#0c2435" stroke="#0c2435"></path><path d="M491 540L474 472L445 499Z" fill="#297ea6" stroke="#297ea6"></path><path d="M429 540L445 499L440 497Z" fill="#205a7a" stroke="#205a7a"></path><path d="M429 540L491 540L445 499Z" fill="#205a7a" stroke="#205a7a"></path><path d="M540 540L571 540L543 495Z" fill="#297ea6" stroke="#297ea6"></path><path d="M372 104L372 143L436 128Z" fill="#112e42" stroke="#112e42"></path><path d="M436 128L372 143L407 178Z" fill="#00101c" stroke="#00101c"></path><path d="M368 191L334 166L331 235Z" fill="#297ea6" stroke="#297ea6"></path><path d="M278 328L296 370L311 318Z" fill="#00101c" stroke="#00101c"></path><path d="M311 318L296 370L371 347Z" fill="#1d4e6b" stroke="#1d4e6b"></path><path d="M659 119L637 182L666 177Z" fill="#19435d" stroke="#19435d"></path><path d="M659 119L632 116L637 182Z" fill="#297ea6" stroke="#297ea6"></path><path d="M555 131L518 79L508 129Z" fill="#1d4e6b" stroke="#1d4e6b"></path><path d="M764 237L694 164L701 246Z" fill="#1d4e6b" stroke="#1d4e6b"></path><path d="M769 332L756 326L715 380Z" fill="#1d4e6b" stroke="#1d4e6b"></path><path d="M736 299L764 237L701 246Z" fill="#15384f" stroke="#15384f"></path><path d="M769 332L715 380L779 413Z" fill="#00101c" stroke="#00101c"></path><path d="M571 58L518 79L555 131Z" fill="#277297" stroke="#277297"></path><path d="M452 115L444 76L436 128Z" fill="#205a7a" stroke="#205a7a"></path><path d="M387 525L440 497L357 447Z" fill="#081a28" stroke="#081a28"></path><path d="M372 143L334 166L368 191Z" fill="#00101c" stroke="#00101c"></path><path d="M331 235L291 241L328 301Z" fill="#1d4e6b" stroke="#1d4e6b"></path><path d="M334 166L291 241L331 235Z" fill="#0c2435" stroke="#0c2435"></path><path d="M250 292L278 328L311 318Z" fill="#205a7a" stroke="#205a7a"></path><path d="M296 370L303 428L342 443Z" fill="#112e42" stroke="#112e42"></path><path d="M358 540L387 525L357 447Z" fill="#00101c" stroke="#00101c"></path><path d="M266 401L303 428L296 370Z" fill="#1d4e6b" stroke="#1d4e6b"></path><path d="M694 164L659 119L666 177Z" fill="#277297" stroke="#277297"></path><path d="M632 116L571 58L555 131Z" fill="#112e42" stroke="#112e42"></path><path d="M667 540L702 479L672 469Z" fill="#1d4e6b" stroke="#1d4e6b"></path><path d="M672 469L702 479L698 423Z" fill="#112e42" stroke="#112e42"></path><path d="M358 540L357 447L309 516Z" fill="#297ea6" stroke="#297ea6"></path><path d="M518 79L484 73L508 129Z" fill="#15384f" stroke="#15384f"></path><path d="M372 143L365 104L334 166Z" fill="#205a7a" stroke="#205a7a"></path><path d="M779 413L715 380L715 395Z" fill="#246688" stroke="#246688"></path><path d="M756 326L781 284L736 299Z" fill="#246688" stroke="#246688"></path><path d="M484 73L444 76L452 115Z" fill="#19435d" stroke="#19435d"></path><path d="M571 540L643 540L596 483Z" fill="#00101c" stroke="#00101c"></path><path d="M781 284L764 237L736 299Z" fill="#277297" stroke="#277297"></path><path d="M694 164L697 123L659 119Z" fill="#15384f" stroke="#15384f"></path><path d="M444 76L372 104L436 128Z" fill="#15384f" stroke="#15384f"></path><path d="M769 332L781 284L756 326Z" fill="#112e42" stroke="#112e42"></path><path d="M731 121L697 123L694 164Z" fill="#00101c" stroke="#00101c"></path><path d="M636 71L571 58L632 116Z" fill="#297ea6" stroke="#297ea6"></path><path d="M250 292L256 332L278 328Z" fill="#15384f" stroke="#15384f"></path><path d="M278 328L256 332L296 370Z" fill="#297ea6" stroke="#297ea6"></path><path d="M360 62L365 104L372 104Z" fill="#00101c" stroke="#00101c"></path><path d="M372 104L365 104L372 143Z" fill="#19435d" stroke="#19435d"></path><path d="M228 205L258 261L291 241Z" fill="#0c2435" stroke="#0c2435"></path><path d="M739 540L745 456L702 479Z" fill="#205a7a" stroke="#205a7a"></path><path d="M702 479L745 456L698 423Z" fill="#00101c" stroke="#00101c"></path><path d="M769 332L854 328L781 284Z" fill="#246688" stroke="#246688"></path><path d="M636 71L632 116L659 119Z" fill="#0c2435" stroke="#0c2435"></path><path d="M518 79L538 53L484 73Z" fill="#1d4e6b" stroke="#1d4e6b"></path><path d="M484 73L457 37L444 76Z" fill="#0c2435" stroke="#0c2435"></path><path d="M571 58L538 53L518 79Z" fill="#15384f" stroke="#15384f"></path><path d="M643 540L667 540L672 469Z" fill="#00101c" stroke="#00101c"></path><path d="M256 332L266 401L296 370Z" fill="#205a7a" stroke="#205a7a"></path><path d="M309 516L357 447L342 443Z" fill="#15384f" stroke="#15384f"></path><path d="M281 152L291 241L334 166Z" fill="#15384f" stroke="#15384f"></path><path d="M291 241L258 261L328 301Z" fill="#277297" stroke="#277297"></path><path d="M781 284L777 238L764 237Z" fill="#205a7a" stroke="#205a7a"></path><path d="M764 237L778 206L694 164Z" fill="#15384f" stroke="#15384f"></path><path d="M251 276L250 292L311 318Z" fill="#15384f" stroke="#15384f"></path><path d="M221 366L251 416L266 401Z" fill="#0c2435" stroke="#0c2435"></path><path d="M258 261L251 276L311 318Z" fill="#112e42" stroke="#112e42"></path><path d="M721 67L636 71L659 119Z" fill="#081a28" stroke="#081a28"></path><path d="M277 465L342 443L303 428Z" fill="#112e42" stroke="#112e42"></path><path d="M387 525L358 540L429 540Z" fill="#246688" stroke="#246688"></path><path d="M745 456L779 413L715 395Z" fill="#297ea6" stroke="#297ea6"></path><path d="M798 225L782 222L777 238Z" fill="#205a7a" stroke="#205a7a"></path><path d="M777 238L782 222L764 237Z" fill="#277297" stroke="#277297"></path><path d="M798 225L777 238L781 284Z" fill="#081a28" stroke="#081a28"></path><path d="M782 222L778 206L764 237Z" fill="#277297" stroke="#277297"></path><path d="M271 462L277 465L303 428Z" fill="#205a7a" stroke="#205a7a"></path><path d="M221 366L266 401L256 332Z" fill="#19435d" stroke="#19435d"></path><path d="M266 401L251 416L303 428Z" fill="#081a28" stroke="#081a28"></path><path d="M667 540L700 540L702 479Z" fill="#297ea6" stroke="#297ea6"></path><path d="M745 456L782 464L779 413Z" fill="#1d4e6b" stroke="#1d4e6b"></path><path d="M251 416L271 462L303 428Z" fill="#112e42" stroke="#112e42"></path><path d="M277 465L309 516L342 443Z" fill="#15384f" stroke="#15384f"></path><path d="M538 53L457 37L484 73Z" fill="#15384f" stroke="#15384f"></path><path d="M444 76L360 62L372 104Z" fill="#0c2435" stroke="#0c2435"></path><path d="M538 0L457 37L538 53Z" fill="#1d4e6b" stroke="#1d4e6b"></path><path d="M798 225L782 198L778 206Z" fill="#112e42" stroke="#112e42"></path><path d="M778 206L782 198L694 164Z" fill="#297ea6" stroke="#297ea6"></path><path d="M261 474L309 516L277 465Z" fill="#246688" stroke="#246688"></path><path d="M752 124L731 121L694 164Z" fill="#205a7a" stroke="#205a7a"></path><path d="M697 123L721 67L659 119Z" fill="#15384f" stroke="#15384f"></path><path d="M321 59L281 152L365 104Z" fill="#1d4e6b" stroke="#1d4e6b"></path><path d="M365 104L281 152L334 166Z" fill="#00101c" stroke="#00101c"></path><path d="M258 261L211 287L251 276Z" fill="#0c2435" stroke="#0c2435"></path><path d="M782 222L798 225L778 206Z" fill="#00101c" stroke="#00101c"></path><path d="M833 216L798 225L860 302Z" fill="#246688" stroke="#246688"></path><path d="M312 540L325 540L309 516Z" fill="#1d4e6b" stroke="#1d4e6b"></path><path d="M309 516L325 540L358 540Z" fill="#205a7a" stroke="#205a7a"></path><path d="M795 485L782 464L745 456Z" fill="#1d4e6b" stroke="#1d4e6b"></path><path d="M779 413L829 395L769 332Z" fill="#00101c" stroke="#00101c"></path><path d="M213 441L261 474L271 462Z" fill="#00101c" stroke="#00101c"></path><path d="M271 462L261 474L277 465Z" fill="#277297" stroke="#277297"></path><path d="M363 40L360 62L444 76Z" fill="#205a7a" stroke="#205a7a"></path><path d="M205 338L256 332L250 292Z" fill="#15384f" stroke="#15384f"></path><path d="M205 338L221 366L256 332Z" fill="#112e42" stroke="#112e42"></path><path d="M251 416L213 441L271 462Z" fill="#081a28" stroke="#081a28"></path><path d="M211 287L250 292L251 276Z" fill="#277297" stroke="#277297"></path><path d="M782 198L752 124L694 164Z" fill="#19435d" stroke="#19435d"></path><path d="M731 121L721 67L697 123Z" fill="#277297" stroke="#277297"></path><path d="M829 141L752 124L782 198Z" fill="#15384f" stroke="#15384f"></path><path d="M211 540L312 540L309 516Z" fill="#081a28" stroke="#081a28"></path><path d="M228 205L211 287L258 261Z" fill="#0c2435" stroke="#0c2435"></path><path d="M700 540L739 540L702 479Z" fill="#15384f" stroke="#15384f"></path><path d="M236 166L228 205L281 152Z" fill="#00101c" stroke="#00101c"></path><path d="M281 152L228 205L291 241Z" fill="#205a7a" stroke="#205a7a"></path><path d="M211 287L205 338L250 292Z" fill="#0c2435" stroke="#0c2435"></path><path d="M221 366L213 441L251 416Z" fill="#277297" stroke="#277297"></path><path d="M578 0L538 53L571 58Z" fill="#0c2435" stroke="#0c2435"></path><path d="M578 0L538 0L538 53Z" fill="#0c2435" stroke="#0c2435"></path><path d="M412 0L363 40L444 76Z" fill="#112e42" stroke="#112e42"></path><path d="M578 0L571 58L613 6Z" fill="#246688" stroke="#246688"></path><path d="M819 461L779 413L782 464Z" fill="#277297" stroke="#277297"></path><path d="M819 461L829 395L779 413Z" fill="#277297" stroke="#277297"></path><path d="M412 0L444 76L457 37Z" fill="#1d4e6b" stroke="#1d4e6b"></path><path d="M360 62L321 59L365 104Z" fill="#112e42" stroke="#112e42"></path><path d="M256 116L236 166L281 152Z" fill="#1d4e6b" stroke="#1d4e6b"></path><path d="M150 258L178 331L211 287Z" fill="#277297" stroke="#277297"></path><path d="M739 540L795 485L745 456Z" fill="#081a28" stroke="#081a28"></path><path d="M736 75L721 67L731 121Z" fill="#081a28" stroke="#081a28"></path><path d="M613 6L571 58L636 71Z" fill="#19435d" stroke="#19435d"></path><path d="M752 124L736 75L731 121Z" fill="#19435d" stroke="#19435d"></path><path d="M791 79L736 75L752 124Z" fill="#081a28" stroke="#081a28"></path><path d="M643 12L636 71L663 9Z" fill="#277297" stroke="#277297"></path><path d="M643 12L613 6L636 71Z" fill="#246688" stroke="#246688"></path><path d="M363 40L321 59L360 62Z" fill="#246688" stroke="#246688"></path><path d="M538 0L445 0L457 37Z" fill="#19435d" stroke="#19435d"></path><path d="M320 9L299 59L321 59Z" fill="#0c2435" stroke="#0c2435"></path><path d="M445 0L440 0L457 37Z" fill="#1d4e6b" stroke="#1d4e6b"></path><path d="M860 302L798 225L781 284Z" fill="#0c2435" stroke="#0c2435"></path><path d="M798 225L833 216L782 198Z" fill="#15384f" stroke="#15384f"></path><path d="M142 433L213 441L221 366Z" fill="#081a28" stroke="#081a28"></path><path d="M261 474L211 540L309 516Z" fill="#0c2435" stroke="#0c2435"></path><path d="M663 9L636 71L721 67Z" fill="#246688" stroke="#246688"></path><path d="M795 485L819 461L782 464Z" fill="#112e42" stroke="#112e42"></path><path d="M299 59L256 116L281 152Z" fill="#205a7a" stroke="#205a7a"></path><path d="M874 328L854 328L891 351Z" fill="#277297" stroke="#277297"></path><path d="M829 395L854 328L769 332Z" fill="#0c2435" stroke="#0c2435"></path><path d="M440 0L412 0L457 37Z" fill="#246688" stroke="#246688"></path><path d="M791 79L731 56L736 75Z" fill="#00101c" stroke="#00101c"></path><path d="M736 75L731 56L721 67Z" fill="#00101c" stroke="#00101c"></path><path d="M663 9L635 0L643 12Z" fill="#277297" stroke="#277297"></path><path d="M643 12L635 0L613 6Z" fill="#00101c" stroke="#00101c"></path><path d="M613 6L635 0L578 0Z" fill="#0c2435" stroke="#0c2435"></path><path d="M320 9L321 59L363 40Z" fill="#081a28" stroke="#081a28"></path><path d="M321 59L299 59L281 152Z" fill="#297ea6" stroke="#297ea6"></path><path d="M854 328L860 302L781 284Z" fill="#112e42" stroke="#112e42"></path><path d="M703 0L663 9L721 67Z" fill="#19435d" stroke="#19435d"></path><path d="M211 287L178 331L205 338Z" fill="#00101c" stroke="#00101c"></path><path d="M205 338L159 351L221 366Z" fill="#297ea6" stroke="#297ea6"></path><path d="M150 258L211 287L228 205Z" fill="#19435d" stroke="#19435d"></path><path d="M213 134L209 160L236 166Z" fill="#112e42" stroke="#112e42"></path><path d="M236 166L209 160L228 205Z" fill="#1d4e6b" stroke="#1d4e6b"></path><path d="M231 117L236 166L256 116Z" fill="#246688" stroke="#246688"></path><path d="M267 0L278 64L299 59Z" fill="#00101c" stroke="#00101c"></path><path d="M299 59L278 64L256 116Z" fill="#0c2435" stroke="#0c2435"></path><path d="M218 56L231 117L256 116Z" fill="#00101c" stroke="#00101c"></path><path d="M891 351L854 328L829 395Z" fill="#19435d" stroke="#19435d"></path><path d="M854 328L874 328L860 302Z" fill="#277297" stroke="#277297"></path><path d="M860 302L882 234L833 216Z" fill="#246688" stroke="#246688"></path><path d="M833 216L829 141L782 198Z" fill="#205a7a" stroke="#205a7a"></path><path d="M884 157L829 141L833 216Z" fill="#205a7a" stroke="#205a7a"></path><path d="M175 146L164 80L143 118Z" fill="#1d4e6b" stroke="#1d4e6b"></path><path d="M231 117L213 134L236 166Z" fill="#081a28" stroke="#081a28"></path><path d="M114 337L159 351L178 331Z" fill="#205a7a" stroke="#205a7a"></path><path d="M823 114L791 79L752 124Z" fill="#15384f" stroke="#15384f"></path><path d="M731 56L703 0L721 67Z" fill="#0c2435" stroke="#0c2435"></path><path d="M150 258L228 205L116 216Z" fill="#081a28" stroke="#081a28"></path><path d="M178 331L159 351L205 338Z" fill="#081a28" stroke="#081a28"></path><path d="M849 83L823 114L878 111Z" fill="#0c2435" stroke="#0c2435"></path><path d="M829 141L823 114L752 124Z" fill="#15384f" stroke="#15384f"></path><path d="M707 0L703 0L731 56Z" fill="#15384f" stroke="#15384f"></path><path d="M663 9L703 0L635 0Z" fill="#297ea6" stroke="#297ea6"></path><path d="M412 0L320 9L363 40Z" fill="#081a28" stroke="#081a28"></path><path d="M164 80L213 134L231 117Z" fill="#081a28" stroke="#081a28"></path><path d="M738 0L707 0L731 56Z" fill="#0c2435" stroke="#0c2435"></path><path d="M823 114L800 75L791 79Z" fill="#205a7a" stroke="#205a7a"></path><path d="M794 0L738 0L731 56Z" fill="#00101c" stroke="#00101c"></path><path d="M739 540L826 529L795 485Z" fill="#297ea6" stroke="#297ea6"></path><path d="M795 485L826 529L819 461Z" fill="#246688" stroke="#246688"></path><path d="M910 375L891 351L829 395Z" fill="#246688" stroke="#246688"></path><path d="M924 283L882 234L860 302Z" fill="#297ea6" stroke="#297ea6"></path><path d="M882 432L829 395L819 461Z" fill="#19435d" stroke="#19435d"></path><path d="M874 328L924 283L860 302Z" fill="#0c2435" stroke="#0c2435"></path><path d="M175 146L228 205L209 160Z" fill="#15384f" stroke="#15384f"></path><path d="M412 0L317 0L320 9Z" fill="#0c2435" stroke="#0c2435"></path><path d="M320 9L297 0L299 59Z" fill="#0c2435" stroke="#0c2435"></path><path d="M883 441L882 432L819 461Z" fill="#297ea6" stroke="#297ea6"></path><path d="M167 488L261 474L213 441Z" fill="#246688" stroke="#246688"></path><path d="M167 488L211 540L261 474Z" fill="#081a28" stroke="#081a28"></path><path d="M739 540L829 540L826 529Z" fill="#19435d" stroke="#19435d"></path><path d="M900 481L883 441L819 461Z" fill="#277297" stroke="#277297"></path><path d="M829 540L831 540L826 529Z" fill="#277297" stroke="#277297"></path><path d="M900 481L819 461L826 529Z" fill="#277297" stroke="#277297"></path><path d="M882 432L910 375L829 395Z" fill="#277297" stroke="#277297"></path><path d="M218 56L256 116L278 64Z" fill="#15384f" stroke="#15384f"></path><path d="M213 134L175 146L209 160Z" fill="#0c2435" stroke="#0c2435"></path><path d="M794 0L731 56L791 79Z" fill="#0c2435" stroke="#0c2435"></path><path d="M317 0L297 0L320 9Z" fill="#277297" stroke="#277297"></path><path d="M155 477L167 488L213 441Z" fill="#19435d" stroke="#19435d"></path><path d="M142 433L221 366L159 351Z" fill="#277297" stroke="#277297"></path><path d="M167 488L196 540L211 540Z" fill="#19435d" stroke="#19435d"></path><path d="M80 384L142 433L159 351Z" fill="#19435d" stroke="#19435d"></path><path d="M931 384L910 375L937 426Z" fill="#297ea6" stroke="#297ea6"></path><path d="M891 351L924 283L874 328Z" fill="#246688" stroke="#246688"></path><path d="M142 433L155 477L213 441Z" fill="#112e42" stroke="#112e42"></path><path d="M167 488L163 540L196 540Z" fill="#00101c" stroke="#00101c"></path><path d="M944 191L884 157L882 234Z" fill="#1d4e6b" stroke="#1d4e6b"></path><path d="M882 234L884 157L833 216Z" fill="#0c2435" stroke="#0c2435"></path><path d="M823 114L849 83L800 75Z" fill="#297ea6" stroke="#297ea6"></path><path d="M800 75L794 0L791 79Z" fill="#081a28" stroke="#081a28"></path><path d="M267 0L218 56L278 64Z" fill="#0c2435" stroke="#0c2435"></path><path d="M116 216L125 245L150 258Z" fill="#205a7a" stroke="#205a7a"></path><path d="M150 258L114 337L178 331Z" fill="#00101c" stroke="#00101c"></path><path d="M116 216L228 205L175 146Z" fill="#297ea6" stroke="#297ea6"></path><path d="M878 111L823 114L829 141Z" fill="#081a28" stroke="#081a28"></path><path d="M849 83L830 58L800 75Z" fill="#00101c" stroke="#00101c"></path><path d="M125 245L114 337L150 258Z" fill="#19435d" stroke="#19435d"></path><path d="M960 289L924 283L960 370Z" fill="#19435d" stroke="#19435d"></path><path d="M297 0L267 0L299 59Z" fill="#0c2435" stroke="#0c2435"></path><path d="M937 426L910 375L882 432Z" fill="#19435d" stroke="#19435d"></path><path d="M960 370L924 283L891 351Z" fill="#15384f" stroke="#15384f"></path><path d="M883 540L900 481L826 529Z" fill="#246688" stroke="#246688"></path><path d="M884 157L878 111L829 141Z" fill="#15384f" stroke="#15384f"></path><path d="M849 83L881 31L830 58Z" fill="#246688" stroke="#246688"></path><path d="M885 75L878 111L941 113Z" fill="#277297" stroke="#277297"></path><path d="M103 149L116 216L175 146Z" fill="#297ea6" stroke="#297ea6"></path><path d="M125 245L107 242L114 337Z" fill="#297ea6" stroke="#297ea6"></path><path d="M937 426L882 432L883 441Z" fill="#15384f" stroke="#15384f"></path><path d="M116 216L108 240L125 245Z" fill="#112e42" stroke="#112e42"></path><path d="M79 181L107 242L108 240Z" fill="#297ea6" stroke="#297ea6"></path><path d="M108 240L107 242L125 245Z" fill="#112e42" stroke="#112e42"></path><path d="M109 495L167 488L155 477Z" fill="#297ea6" stroke="#297ea6"></path><path d="M109 495L163 540L167 488Z" fill="#00101c" stroke="#00101c"></path><path d="M114 459L155 477L142 433Z" fill="#246688" stroke="#246688"></path><path d="M881 31L794 0L830 58Z" fill="#00101c" stroke="#00101c"></path><path d="M830 58L794 0L800 75Z" fill="#297ea6" stroke="#297ea6"></path><path d="M188 0L194 48L218 56Z" fill="#00101c" stroke="#00101c"></path><path d="M218 56L164 80L231 117Z" fill="#081a28" stroke="#081a28"></path><path d="M831 540L883 540L826 529Z" fill="#112e42" stroke="#112e42"></path><path d="M900 481L937 426L883 441Z" fill="#19435d" stroke="#19435d"></path><path d="M164 80L175 146L213 134Z" fill="#205a7a" stroke="#205a7a"></path><path d="M116 216L79 181L108 240Z" fill="#00101c" stroke="#00101c"></path><path d="M194 48L164 80L218 56Z" fill="#00101c" stroke="#00101c"></path><path d="M70 437L114 459L142 433Z" fill="#081a28" stroke="#081a28"></path><path d="M80 384L159 351L114 337Z" fill="#1d4e6b" stroke="#1d4e6b"></path><path d="M960 426L937 426L960 428Z" fill="#246688" stroke="#246688"></path><path d="M960 370L891 351L910 375Z" fill="#297ea6" stroke="#297ea6"></path><path d="M188 0L172 53L194 48Z" fill="#081a28" stroke="#081a28"></path><path d="M194 48L172 53L164 80Z" fill="#15384f" stroke="#15384f"></path><path d="M164 80L136 96L143 118Z" fill="#297ea6" stroke="#297ea6"></path><path d="M58 300L82 333L114 337Z" fill="#0c2435" stroke="#0c2435"></path><path d="M941 113L878 111L884 157Z" fill="#1d4e6b" stroke="#1d4e6b"></path><path d="M878 111L885 75L849 83Z" fill="#297ea6" stroke="#297ea6"></path><path d="M960 370L910 375L931 384Z" fill="#1d4e6b" stroke="#1d4e6b"></path><path d="M960 240L944 191L882 234Z" fill="#246688" stroke="#246688"></path><path d="M960 240L882 234L924 283Z" fill="#246688" stroke="#246688"></path><path d="M122 29L136 96L164 80Z" fill="#15384f" stroke="#15384f"></path><path d="M143 118L103 149L175 146Z" fill="#00101c" stroke="#00101c"></path><path d="M58 300L60 316L82 333Z" fill="#277297" stroke="#277297"></path><path d="M960 426L960 370L931 384Z" fill="#15384f" stroke="#15384f"></path><path d="M82 333L80 384L114 337Z" fill="#112e42" stroke="#112e42"></path><path d="M82 502L109 495L114 459Z" fill="#15384f" stroke="#15384f"></path><path d="M114 459L109 495L155 477Z" fill="#00101c" stroke="#00101c"></path><path d="M960 289L960 240L924 283Z" fill="#205a7a" stroke="#205a7a"></path><path d="M136 96L103 149L143 118Z" fill="#0c2435" stroke="#0c2435"></path><path d="M960 191L942 160L944 191Z" fill="#1d4e6b" stroke="#1d4e6b"></path><path d="M944 191L942 160L884 157Z" fill="#246688" stroke="#246688"></path><path d="M960 428L937 426L943 482Z" fill="#0c2435" stroke="#0c2435"></path><path d="M937 426L960 426L931 384Z" fill="#277297" stroke="#277297"></path><path d="M943 482L937 426L900 481Z" fill="#00101c" stroke="#00101c"></path><path d="M883 540L943 482L900 481Z" fill="#081a28" stroke="#081a28"></path><path d="M960 240L960 191L944 191Z" fill="#246688" stroke="#246688"></path><path d="M58 300L114 337L107 242Z" fill="#0c2435" stroke="#0c2435"></path><path d="M82 333L64 380L80 384Z" fill="#297ea6" stroke="#297ea6"></path><path d="M80 384L70 437L142 433Z" fill="#112e42" stroke="#112e42"></path><path d="M267 0L188 0L218 56Z" fill="#1d4e6b" stroke="#1d4e6b"></path><path d="M172 53L122 29L164 80Z" fill="#0c2435" stroke="#0c2435"></path><path d="M70 148L79 181L103 149Z" fill="#00101c" stroke="#00101c"></path><path d="M60 316L64 380L82 333Z" fill="#297ea6" stroke="#297ea6"></path><path d="M70 148L103 149L136 96Z" fill="#205a7a" stroke="#205a7a"></path><path d="M103 149L79 181L116 216Z" fill="#00101c" stroke="#00101c"></path><path d="M960 59L881 31L885 75Z" fill="#15384f" stroke="#15384f"></path><path d="M885 75L881 31L849 83Z" fill="#1d4e6b" stroke="#1d4e6b"></path><path d="M941 113L884 157L942 160Z" fill="#15384f" stroke="#15384f"></path><path d="M56 280L58 300L107 242Z" fill="#112e42" stroke="#112e42"></path><path d="M0 418L21 424L64 380Z" fill="#00101c" stroke="#00101c"></path><path d="M64 380L70 437L80 384Z" fill="#15384f" stroke="#15384f"></path><path d="M20 196L56 280L107 242Z" fill="#15384f" stroke="#15384f"></path><path d="M58 478L70 437L21 424Z" fill="#297ea6" stroke="#297ea6"></path><path d="M960 130L941 113L942 160Z" fill="#205a7a" stroke="#205a7a"></path><path d="M960 540L960 490L943 482Z" fill="#19435d" stroke="#19435d"></path><path d="M943 482L960 490L960 428Z" fill="#081a28" stroke="#081a28"></path><path d="M60 483L82 502L114 459Z" fill="#112e42" stroke="#112e42"></path><path d="M109 495L83 540L163 540Z" fill="#19435d" stroke="#19435d"></path><path d="M960 191L960 130L942 160Z" fill="#112e42" stroke="#112e42"></path><path d="M922 0L885 0L881 31Z" fill="#00101c" stroke="#00101c"></path><path d="M65 53L70 148L136 96Z" fill="#246688" stroke="#246688"></path><path d="M79 181L20 196L107 242Z" fill="#112e42" stroke="#112e42"></path><path d="M960 76L885 75L941 113Z" fill="#1d4e6b" stroke="#1d4e6b"></path><path d="M881 31L885 0L794 0Z" fill="#297ea6" stroke="#297ea6"></path><path d="M58 478L60 483L114 459Z" fill="#277297" stroke="#277297"></path><path d="M58 478L114 459L70 437Z" fill="#112e42" stroke="#112e42"></path><path d="M70 437L64 380L21 424Z" fill="#205a7a" stroke="#205a7a"></path><path d="M64 380L60 316L0 345Z" fill="#246688" stroke="#246688"></path><path d="M24 540L83 540L82 502Z" fill="#081a28" stroke="#081a28"></path><path d="M82 502L83 540L109 495Z" fill="#15384f" stroke="#15384f"></path><path d="M141 0L122 29L172 53Z" fill="#081a28" stroke="#081a28"></path><path d="M883 540L960 540L943 482Z" fill="#277297" stroke="#277297"></path><path d="M188 0L141 0L172 53Z" fill="#297ea6" stroke="#297ea6"></path><path d="M960 130L960 76L941 113Z" fill="#277297" stroke="#277297"></path><path d="M0 302L58 300L0 288Z" fill="#081a28" stroke="#081a28"></path><path d="M0 302L60 316L58 300Z" fill="#19435d" stroke="#19435d"></path><path d="M0 512L24 540L60 483Z" fill="#297ea6" stroke="#297ea6"></path><path d="M60 483L24 540L82 502Z" fill="#205a7a" stroke="#205a7a"></path><path d="M960 76L960 59L885 75Z" fill="#1d4e6b" stroke="#1d4e6b"></path><path d="M960 59L922 0L881 31Z" fill="#0c2435" stroke="#0c2435"></path><path d="M0 147L20 196L70 148Z" fill="#277297" stroke="#277297"></path><path d="M70 148L20 196L79 181Z" fill="#277297" stroke="#277297"></path><path d="M0 288L58 300L56 280Z" fill="#297ea6" stroke="#297ea6"></path><path d="M0 302L0 345L60 316Z" fill="#081a28" stroke="#081a28"></path><path d="M0 230L0 288L56 280Z" fill="#277297" stroke="#277297"></path><path d="M89 0L65 53L122 29Z" fill="#277297" stroke="#277297"></path><path d="M122 29L65 53L136 96Z" fill="#112e42" stroke="#112e42"></path><path d="M0 147L0 230L20 196Z" fill="#19435d" stroke="#19435d"></path><path d="M20 196L0 230L56 280Z" fill="#1d4e6b" stroke="#1d4e6b"></path><path d="M0 345L0 418L64 380Z" fill="#1d4e6b" stroke="#1d4e6b"></path><path d="M0 481L60 483L58 478Z" fill="#00101c" stroke="#00101c"></path><path d="M141 0L89 0L122 29Z" fill="#081a28" stroke="#081a28"></path><path d="M0 481L58 478L21 424Z" fill="#277297" stroke="#277297"></path><path d="M0 113L23 98L0 78Z" fill="#246688" stroke="#246688"></path><path d="M65 53L23 98L70 148Z" fill="#15384f" stroke="#15384f"></path><path d="M960 59L960 0L922 0Z" fill="#0c2435" stroke="#0c2435"></path><path d="M0 418L0 481L21 424Z" fill="#081a28" stroke="#081a28"></path><path d="M23 98L0 147L70 148Z" fill="#277297" stroke="#277297"></path><path d="M0 481L0 512L60 483Z" fill="#081a28" stroke="#081a28"></path><path d="M0 78L23 98L10 51Z" fill="#205a7a" stroke="#205a7a"></path><path d="M23 98L0 113L0 147Z" fill="#15384f" stroke="#15384f"></path><path d="M0 512L0 540L24 540Z" fill="#0c2435" stroke="#0c2435"></path><path d="M10 51L23 98L65 53Z" fill="#00101c" stroke="#00101c"></path><path d="M39 0L10 51L65 53Z" fill="#112e42" stroke="#112e42"></path><path d="M89 0L39 0L65 53Z" fill="#297ea6" stroke="#297ea6"></path><path d="M0 0L0 62L10 51Z" fill="#19435d" stroke="#19435d"></path><path d="M10 51L0 62L0 78Z" fill="#1d4e6b" stroke="#1d4e6b"></path><path d="M39 0L0 0L10 51Z" fill="#112e42" stroke="#112e42"></path></g></svg>